<mxfile host="app.diagrams.net" modified="2023-07-26T23:54:56.858Z" agent="Mozilla/5.0 (Windows NT 10.0; Win64; x64) AppleWebKit/537.36 (KHTML, like Gecko) Chrome/114.0.0.0 Safari/537.36" etag="HvKPHPciVq68f4lGN5QR" version="21.3.8" type="device" pages="7">
  <diagram name="Página-1" id="Rbm9_8pz1_UMVsuRpCix">
    <mxGraphModel dx="1434" dy="1933" grid="1" gridSize="10" guides="1" tooltips="1" connect="1" arrows="1" fold="1" page="1" pageScale="1" pageWidth="827" pageHeight="1169" math="0" shadow="0">
      <root>
        <mxCell id="0" />
        <mxCell id="1" parent="0" />
        <mxCell id="M3EC4ICY0nNeSRSvseWh-1" value="Genero" style="shape=table;startSize=30;container=1;collapsible=1;childLayout=tableLayout;fixedRows=1;rowLines=0;fontStyle=1;align=center;resizeLast=1;html=1;" parent="1" vertex="1">
          <mxGeometry x="334" y="190" width="180" height="90" as="geometry">
            <mxRectangle x="610" y="140" width="70" height="30" as="alternateBounds" />
          </mxGeometry>
        </mxCell>
        <mxCell id="M3EC4ICY0nNeSRSvseWh-2" value="" style="shape=tableRow;horizontal=0;startSize=0;swimlaneHead=0;swimlaneBody=0;fillColor=none;collapsible=0;dropTarget=0;points=[[0,0.5],[1,0.5]];portConstraint=eastwest;top=0;left=0;right=0;bottom=1;" parent="M3EC4ICY0nNeSRSvseWh-1" vertex="1">
          <mxGeometry y="30" width="180" height="30" as="geometry" />
        </mxCell>
        <mxCell id="M3EC4ICY0nNeSRSvseWh-3" value="PK" style="shape=partialRectangle;connectable=0;fillColor=none;top=0;left=0;bottom=0;right=0;fontStyle=1;overflow=hidden;whiteSpace=wrap;html=1;" parent="M3EC4ICY0nNeSRSvseWh-2" vertex="1">
          <mxGeometry width="30" height="30" as="geometry">
            <mxRectangle width="30" height="30" as="alternateBounds" />
          </mxGeometry>
        </mxCell>
        <mxCell id="M3EC4ICY0nNeSRSvseWh-4" value="IdGenero" style="shape=partialRectangle;connectable=0;fillColor=none;top=0;left=0;bottom=0;right=0;align=left;spacingLeft=6;fontStyle=5;overflow=hidden;whiteSpace=wrap;html=1;" parent="M3EC4ICY0nNeSRSvseWh-2" vertex="1">
          <mxGeometry x="30" width="150" height="30" as="geometry">
            <mxRectangle width="150" height="30" as="alternateBounds" />
          </mxGeometry>
        </mxCell>
        <mxCell id="M3EC4ICY0nNeSRSvseWh-5" value="" style="shape=tableRow;horizontal=0;startSize=0;swimlaneHead=0;swimlaneBody=0;fillColor=none;collapsible=0;dropTarget=0;points=[[0,0.5],[1,0.5]];portConstraint=eastwest;top=0;left=0;right=0;bottom=0;" parent="M3EC4ICY0nNeSRSvseWh-1" vertex="1">
          <mxGeometry y="60" width="180" height="30" as="geometry" />
        </mxCell>
        <mxCell id="M3EC4ICY0nNeSRSvseWh-6" value="" style="shape=partialRectangle;connectable=0;fillColor=none;top=0;left=0;bottom=0;right=0;editable=1;overflow=hidden;whiteSpace=wrap;html=1;" parent="M3EC4ICY0nNeSRSvseWh-5" vertex="1">
          <mxGeometry width="30" height="30" as="geometry">
            <mxRectangle width="30" height="30" as="alternateBounds" />
          </mxGeometry>
        </mxCell>
        <mxCell id="M3EC4ICY0nNeSRSvseWh-7" value="NomeGenero" style="shape=partialRectangle;connectable=0;fillColor=none;top=0;left=0;bottom=0;right=0;align=left;spacingLeft=6;overflow=hidden;whiteSpace=wrap;html=1;" parent="M3EC4ICY0nNeSRSvseWh-5" vertex="1">
          <mxGeometry x="30" width="150" height="30" as="geometry">
            <mxRectangle width="150" height="30" as="alternateBounds" />
          </mxGeometry>
        </mxCell>
        <mxCell id="M3EC4ICY0nNeSRSvseWh-8" value="Lógico" style="text;html=1;align=center;verticalAlign=middle;resizable=0;points=[];autosize=1;strokeColor=#b85450;fillColor=#f8cecc;" parent="1" vertex="1">
          <mxGeometry x="520" y="80" width="60" height="30" as="geometry" />
        </mxCell>
        <mxCell id="M3EC4ICY0nNeSRSvseWh-9" value="Conceitual&lt;br&gt;" style="text;html=1;align=center;verticalAlign=middle;resizable=0;points=[];autosize=1;strokeColor=#b85450;fillColor=#f8cecc;" parent="1" vertex="1">
          <mxGeometry x="80" y="70" width="80" height="30" as="geometry" />
        </mxCell>
        <mxCell id="M3EC4ICY0nNeSRSvseWh-10" value="Filme" style="shape=table;startSize=30;container=1;collapsible=1;childLayout=tableLayout;fixedRows=1;rowLines=0;fontStyle=1;align=center;resizeLast=1;html=1;" parent="1" vertex="1">
          <mxGeometry x="610" y="210" width="180" height="90" as="geometry" />
        </mxCell>
        <mxCell id="M3EC4ICY0nNeSRSvseWh-11" value="" style="shape=tableRow;horizontal=0;startSize=0;swimlaneHead=0;swimlaneBody=0;fillColor=none;collapsible=0;dropTarget=0;points=[[0,0.5],[1,0.5]];portConstraint=eastwest;top=0;left=0;right=0;bottom=1;" parent="M3EC4ICY0nNeSRSvseWh-10" vertex="1">
          <mxGeometry y="30" width="180" height="30" as="geometry" />
        </mxCell>
        <mxCell id="M3EC4ICY0nNeSRSvseWh-12" value="PK" style="shape=partialRectangle;connectable=0;fillColor=none;top=0;left=0;bottom=0;right=0;fontStyle=1;overflow=hidden;whiteSpace=wrap;html=1;" parent="M3EC4ICY0nNeSRSvseWh-11" vertex="1">
          <mxGeometry width="30" height="30" as="geometry">
            <mxRectangle width="30" height="30" as="alternateBounds" />
          </mxGeometry>
        </mxCell>
        <mxCell id="M3EC4ICY0nNeSRSvseWh-13" value="IdFilme" style="shape=partialRectangle;connectable=0;fillColor=none;top=0;left=0;bottom=0;right=0;align=left;spacingLeft=6;fontStyle=5;overflow=hidden;whiteSpace=wrap;html=1;" parent="M3EC4ICY0nNeSRSvseWh-11" vertex="1">
          <mxGeometry x="30" width="150" height="30" as="geometry">
            <mxRectangle width="150" height="30" as="alternateBounds" />
          </mxGeometry>
        </mxCell>
        <mxCell id="M3EC4ICY0nNeSRSvseWh-14" value="" style="shape=tableRow;horizontal=0;startSize=0;swimlaneHead=0;swimlaneBody=0;fillColor=none;collapsible=0;dropTarget=0;points=[[0,0.5],[1,0.5]];portConstraint=eastwest;top=0;left=0;right=0;bottom=0;" parent="M3EC4ICY0nNeSRSvseWh-10" vertex="1">
          <mxGeometry y="60" width="180" height="30" as="geometry" />
        </mxCell>
        <mxCell id="M3EC4ICY0nNeSRSvseWh-15" value="FK" style="shape=partialRectangle;connectable=0;fillColor=none;top=0;left=0;bottom=0;right=0;editable=1;overflow=hidden;whiteSpace=wrap;html=1;" parent="M3EC4ICY0nNeSRSvseWh-14" vertex="1">
          <mxGeometry width="30" height="30" as="geometry">
            <mxRectangle width="30" height="30" as="alternateBounds" />
          </mxGeometry>
        </mxCell>
        <mxCell id="M3EC4ICY0nNeSRSvseWh-16" value="IdGenero" style="shape=partialRectangle;connectable=0;fillColor=none;top=0;left=0;bottom=0;right=0;align=left;spacingLeft=6;overflow=hidden;whiteSpace=wrap;html=1;" parent="M3EC4ICY0nNeSRSvseWh-14" vertex="1">
          <mxGeometry x="30" width="150" height="30" as="geometry">
            <mxRectangle width="150" height="30" as="alternateBounds" />
          </mxGeometry>
        </mxCell>
        <mxCell id="M3EC4ICY0nNeSRSvseWh-17" value="Você deverá criar a modelagem para o catálogo de filmes, observando a seguinte situação:&#xa;&#xa;&#xa;- um filme possui apenas um único gênero.&#xa;- um gênero pode definir mais de um filme." style="text;whiteSpace=wrap;" parent="1" vertex="1">
          <mxGeometry x="140" y="-60" width="520" height="100" as="geometry" />
        </mxCell>
        <mxCell id="M3EC4ICY0nNeSRSvseWh-18" value="" style="edgeStyle=entityRelationEdgeStyle;fontSize=12;html=1;endArrow=ERoneToMany;rounded=0;entryX=0;entryY=0.5;entryDx=0;entryDy=0;exitX=1;exitY=0.5;exitDx=0;exitDy=0;" parent="1" source="M3EC4ICY0nNeSRSvseWh-2" target="M3EC4ICY0nNeSRSvseWh-14" edge="1">
          <mxGeometry width="100" height="100" relative="1" as="geometry">
            <mxPoint x="440" y="220" as="sourcePoint" />
            <mxPoint x="530" y="110" as="targetPoint" />
          </mxGeometry>
        </mxCell>
        <mxCell id="M3EC4ICY0nNeSRSvseWh-19" style="edgeStyle=orthogonalEdgeStyle;rounded=0;orthogonalLoop=1;jettySize=auto;html=1;entryX=0.5;entryY=1;entryDx=0;entryDy=0;endArrow=none;endFill=0;" parent="1" source="M3EC4ICY0nNeSRSvseWh-21" edge="1">
          <mxGeometry relative="1" as="geometry">
            <mxPoint x="105" y="232" as="targetPoint" />
          </mxGeometry>
        </mxCell>
        <mxCell id="M3EC4ICY0nNeSRSvseWh-20" style="edgeStyle=orthogonalEdgeStyle;rounded=0;orthogonalLoop=1;jettySize=auto;html=1;entryX=0.5;entryY=0;entryDx=0;entryDy=0;endArrow=none;endFill=0;" parent="1" source="M3EC4ICY0nNeSRSvseWh-21" edge="1">
          <mxGeometry relative="1" as="geometry">
            <mxPoint x="105" y="402" as="targetPoint" />
          </mxGeometry>
        </mxCell>
        <mxCell id="M3EC4ICY0nNeSRSvseWh-21" value="possui" style="rhombus;whiteSpace=wrap;html=1;" parent="1" vertex="1">
          <mxGeometry x="70" y="282" width="70" height="70" as="geometry" />
        </mxCell>
        <mxCell id="M3EC4ICY0nNeSRSvseWh-22" value="Físico" style="text;html=1;align=center;verticalAlign=middle;resizable=0;points=[];autosize=1;strokeColor=#b85450;fillColor=#f8cecc;" parent="1" vertex="1">
          <mxGeometry x="520" y="418" width="60" height="30" as="geometry" />
        </mxCell>
        <mxCell id="M3EC4ICY0nNeSRSvseWh-23" value="" style="shape=image;verticalLabelPosition=bottom;labelBackgroundColor=default;verticalAlign=top;aspect=fixed;imageAspect=0;image=data:image/png,iVBORw0KGgoAAAANSUhEUgAAAwQAAAB5CAYAAACHr+ZgAAAAAXNSR0IArs4c6QAAAARnQU1BAACxjwv8YQUAAAAJcEhZcwAAEnQAABJ0Ad5mH3gAABtySURBVHhe7d2/bhpZvMDxH/cpsOSshZTWt3BlkNJY2gdYkCMFqlXKdFY6Oy4c6KJ0KVdbgaVYkAdYiSYSuHJx066EvLYEb8E958wZmL8wY2MbON+PNAmMhwHmzPn/h8JUkYj//vtPfvvtN/sMriDc3US4u4lwdxPh7ibC3U15wv1/7P8AAAAAHESFAAAAAHAYFQIAAADAYVQIAAAAAIdRIQAAAAAcRoUAAAAAcBgVAgAAAMBhVAgAAAAAh1EhAAAAABxWuL29jf1S8d7enn0EwAUqHbCP4ArSeQDYflnz98JUsY9nCoWCJOwGsIWI724i3AFgu+VJ5xkyBAAAADiMCgEAAADgMCoEAAAAgMOoEAAAAAAOo0IAAAAAOIwKAQAAAOAwKgQbZSKdtwWzjFRwq11O7N8BANgi9x2pRfK80Pa2o3JG5bqlntekc29eJZPLmnrekqH3FMASVAg2hJe47Uhjf2DWlJ1td22R+g4JHwBga1U743De52/f61LUBxyequddqe+awwHkRIVgE9x35EO95yWIn8p2p7Vbl66qFFTlTL7QUwAAAICcqBBsgOHfDelJUz6+M+0gcapS8PGiKgcl+9zyehUCXaufg30IdviR2hc+bt7lOjeUVvA80WNMV21LOoHztK7t35a9FgCAx4oMGQrz8qHa5TA87NYONxp+DuxL6G1fnJcC24EKwdobSv9c/XdxJJG+gZDyp66cHs4rDDqB26mLtO/8rtWBNM8r8YRM7fsg3+wxY2kf96TxKpAgmvGbFTm7mA9VGndEHRNNeM+k8aMmY3vM6aHalfraYIUBAICn16tXZHTi5UV6uG31qiE7qoD/5bU/HEnngWdS8eclKJnzUmDDUSFYd/cjuVH/VV9Hmv8XUQXxL6oSUe18C4ynLMvpsGkqAKHC+HFbvs16HopSP1HHqHcc2cK+3zsxCAxVKr775lUcTuaJptY8sWM5LfNadf5x7LWq+vA1/FoAANL0zFy5QCu93gIF90wuBl5jlbZ7JDWVF0XzwKM/qiJXIxnpp3nyUmDDUSHYVKb1PZI42q7Oyc+uKsRXpfYmMsTo8EgV7VVxfxRIQvdLoUJ8WFrvRCTRNKpSCk3mmsjol/ovdv6k1wIAkC5xUrE/oTijXA1rSq68FNhwVAjW3W5JDtR/vX8jxWc9mTiQMI47qpAdoof+RCsMFTmzf12sN+shMHT3aOg8ugu1Z/+YRhX4r+xDAAA20mPyUmBzUCFYe2U5ulD/nfdjE50Wa8ogUGEIbt20yckpUpd7m54umNdQkpLujgUAYGOtLi8F1hkVgg1Q/jPfsqLFNzVzfD86vtEOM8o+7tGrjPR+9GPjNM2qDAvHbxaltK/+i1VkJtL/0RM5VhUGuwcAgHWzurwUWH9UCDaBHh40bHqTqmKFcG85NTOExx/rb5YhFTkrB1cCmkjnxJvk+96fVJWBqYzolRiCKypct6RyHp9EHOVXZCqB104uP0jjavlrAQB4USvMS4F1R4VgU5hfYZzKYN9bJi00ltFf1jOwmk/503yJT+84+yvHOSdheXMV7DJr/nuWb8wSbLPVGtIkvHanfmC6X5e+FgCAF7ayvBRYcwVVkJzaxzP6pk/YDWALEd/dRLgDwHbLk87TQwAAAAA4jAoBAAAA4DAqBAAAAIDDqBAAAAAADqNCAAAAADiscHt7G5t+vLe3Zx8BcIFKB+wjuIJ0HgC2X9b8nWVHMUO4u4lwdxPh7ibC3U2Eu5vyhDtDhgAAAACHUSEAAAAAHEaFAAAAAHAYFQIAAADAYVQIAAAAAIdRIQAAAAActlYVguHnghQKLRna58km0nmrjnvbUY+i7N8K4a12GT8SK3TfkZq+1olhoti/r2s4ePddZPu8+C4E8AQyphWTy5qKpzXp3HvPE+NwYGtde8d5r/PzGJtfENefBfk7shtKKxLOSVvt8v/icfi6lT9O69cE0hNXbU0PgZfQ70hjf2DWXJ1td22R+o7627KECI921ZAPm5Q4m0SgIJVfbRkH75npQJrnFRIIYKM0ZRCKx/Pt9NA7oviuq56fStl7ig1B/u6aspwGw1nnyWpvtTMO7JtK993/Sv27evzJj9Gq0vj1zD5GXttRIbjvyId6z7tZZjeGtVuXrko0qnImX2hJeHK9+ocNKUQPpVVWCceFymC+16Vo93p0YqQToJ40/iabAYAXQ/4OPIsNqBBEuo4+9+3+ueHfDVV0a8rHd+Fi3YxKND5eVOWgZJ8b8e5Hv1vZM+9O9lon/OOSWo2j3VuRY0xLdEs6gfPM3su2Us+2tGE3G6DaGUj7WBWiT7J8hyXX3w4daF1Hw18X0COvTbhm4TBTW6QLcXL5RWUhVWn/mdZWWJb3nao0X5fC514SXrMhCfbz+8fFu7WX3X/e925dBs4z+w5L7jdgy4SHBLUkngtkM4uf9nnIo9KcZfEZyaLXmvwdeczD0QunHWlcqYeBHv7kOG/DNFIuCFsS7ttomiBl95MbXIh67+Z0YJ9P79rTqvoscjHbY49R23F7Ovb2TJuRY5azr5mdQxk2zXmbQ/tc/aV97L1XteMf5e9b/BnHnao6pjpt39kd9tyh91O845LeM3D+Z6Q/y4PYa2CuU/CxL7Yv/frPjvGva9J1VNv8msXD37tHAq+LHWOvcyQ8lkkNr8B5/GOS9sU+c8L3jx0T+h5K6v0WfG0++rVwz1qGeyytSEgTZ+nAPG7E8o4UXlzxj7Pn9uPSg9OcLPF5fbxUuJO/J5z/GenPsrm8MA2VK4xIHI4998Mhes0j95UJw0CYPkE++1LyhHvikS9140QTjORE3ga4H/liGchysQhthd8v8j6+yI2T6TMmZg4pN/gDvs+qPDjcI585dn0T/x69ZpFrmXgdkjMH87pl90MoDJLPs1jKa5Z9dyMc1tnuvwzfdSblXs3opeI7XtZahns0/iamnfE45MWd5C342nDaEyk8PDDNyRaf14e+Ji8hej2Srw/5+1N5qXBfjZTr6YfFLH5Gn/v3QzQMI/E6Kdxj+WnKPbPm8oT7Gg8Zmsjol/rv4igyAawopX37cJHIkA1v091GE+n/6Ikc1+Ro1x5rlX9Xt4jcyCjYLbRfiowvDxpK/1z9l/AZj/5Q0f5qJCO7R91sUgq+3/1IvZPIQSly9t0jqR2L9P6dv3LTFN99Wzh0aPSvvv4lCfXwKknXP3Z9lpj87EpPXevam8jrDo/MpKSb0aIO22gXod5sN+F1X/RUpebv0TGsSeF1EA7rkHz3X/V18CrZOBG7J5PuN2DzTUY6lWzKkZ0U7CuWDuyjoORJxf6E4qzypTk58xNY5O9YV+7ms2tcIVAXXY8FS1B6rQLFt1tSxa+ECKYnGwUyBVVLtH+wrhqyE01Q9CTTTHrhRMWMVwufa6euEqVFVIKx5IgNVpT617ZUE1cdspHtSanKyKtweBQKFVOg96jKiEqU5ddIfZqgyMoGQ52BhJ2Vo+e1YxYzCN2jD7r/0uMEsI1M40ESle5HUvSX9aj8xEXk71hX7uaza1whsIW2BOFMoixHF+q/876qz+egV5cJJCjzrSv11NbdZNXIUljzbcHyduuWoa2aSrC/qUQ6vupQxhagR0lffrBrJqb5Nf2u9HO13lWlfZd83tjqF8s86P5LjxPANgoVDoPWrcC1wvzEDeTvWFfu5rNrXCGwBcdYQhBvYS7/mWfZMVsYTEhgFq5AkchLrHo/+pGWZvFWxVi0ooBt+Tj7J/Ju933pqtppeKjIZpoNHSrrVSLmTCafUBgf/qNbcBYNt1mu+KZm7oV+dIWP2Qoi3tPiu4+q2pBjWVEz5Kgn3Z+xkDbDjLL/OM5j7r/0OOF1k6uEzO4BtoE3NCgen72hROtglfmJS8jf8YLskK5k7uaza73saPmTXgv+TCqBpaEmlx/iQzR09+FQFdf0D5TEIqlXYDNdfHYsoFcYVOcNHqsKjN5ax+/Ta/0JTGKluyeDy1ddt6RyLtI8ia5vH+Qta6m7I+fLoU2kc7JkibWNYocO2We+WWE8OMfAXrO81z/GLEGnh/YElwiz1/W4Le9n44nLcqrXrzbdwdFMwi5lpruYZ2NRvfDS91hw+brhZz0UKV94Peb+8zPHpDix+H4DNtDhqQxMfA7EURtX1sUq8xOXkL9j9WxhPjAc2G8knFco/XBI52o+u9YVAh2pzA9EBcbw7fyoSVt3IUapjEN34w32o2MHVYHN7z6cDevQ5x1LWwLHvmrIwdAfUpKDGcsY/oyF8o0ZWrJsMpv51UyV0M3Hpfu/xLhFv6Rphw6FJVx/e81yX/8E5U96TKkE5hHY6xr9ATITdvrYG6n4n8M/Xn26sb5nAq+Jh5f/K8d5w+sR91/C/bZTPzBDpPJOngQ2gY7PgwuVOc/iSldqnfj8npezwvzEKeTvWD0zedzOITGVMR2GfoXShsPoRN0fi4YFOZrPFlRE0ssShegvn7AbW45wdxPh7ibC3U2Eu5sIdzflCfc17yEAAAAA8JSoEAAAAAAOo0IAAAAAOIwKAQAAAOAwKgQAAACAwwq3t7ex6cd7e3v2EQAXqHTAPoIrSOcBYPtlzd9ZdhQzhLubCHc3Ee5uItzdRLi7KU+4M2QIAAAAcBgVAgAAAMBhVAgAAAAAh1EhAAAAABxGhQAAAABwGBUCAAAAwGFUCIyJdN4WzPJM/la7nNi/4blNLmuhsNBb69r+ca3Z++htRz3ShtLiXgLWx3UrnLbM4iq22fBzIMzVthn5iQsCZa/PQ7tvifuO1AJhGdtWEadNOlGTzr197ggqBKbQtiMNact4OjXrtU7v2iL1new3KFbEK0Dv1A9k4IeF3oZNOSuriL5x4VGWU/X5u++K9jmAl2IaGspn0hz6actAmlcN2aFSsNV0ZaBy3pznKTY/oaFmDdz3pXslUj2uipx/yVUAr3bG8zJCcPtel0fnuIen6lxdqe/a546gQnDdlzOpSvtr4Cbarcu3jr5B+6qIiuehWwoqcnasK2anqigdoCOnSsTlvELLDoAHGMpf9Z4pRJwe2l26wq7Tlauu9B1rCXTGfUe+nIuqBAbyFJWfDC5Eej/6VARf2ORnV3rSlI9fa6oU1pPuT0LkJVEhWFgTvJERGcXzuP5LGlcq4T5Jqd0fHslgOJX3u8EEw+tRmHcXhrv4vKFHLRlGhgmYSkWk2zHeWrT43J7IMZ/7dr/P+3v43NHz6tdR7QSelGn4UQWPaG+doy2BztitS3c6DVQCsT68SrpcHElZhdPHlVfSvLy2dRnI62d57ZL8PTJkyJQl3nakMxt6Nv9bdDiaKXN4f9o4VAhSjP5VN6ocSImM4llMRjfq3+qC612WskrUi7s2QzcF+oqcXQxmXYXjjkjjVXR86JlUvpZmw8F0y5AZfvRqJB/tPt370KvvzF+Xeu5AopFwzEAaplKTTidCFbkJdnXetaV6XqH7GnhCJn05LkkpWhCgMu4cXbir6F6DtMYnPA9TSVfh8LvXd1P+XffWNeSvFY8COKt3pXZn89tP6r2y5O9J1GdrqFzee43XiGCGo/0KDDefjqV9rMocmzoMUX2JmJTd7hg2zTWodlQwO+Qlw10V1NX7N6cD+3wZc/xxexoOofG0fTzfP+5U1Tmr0/ad91fDhm1zaJ8bg6lKimbhnfxZwufOckz0vN7niX/H5O/yfJyP745yKdy9+Kq3YHrgxc+XjHsvwdn4btN+s11kzWm2x7qFezzfs/FxWdjctadVPxyjW4bzZcq7zb0yTysSyxL2c4TLEkrktS9NX5es6CGI0rXHsqq3HrflG5NB19RERr/Uf/ulSAtPUY7+UFH0aiQjuyd/L89Q+ufqP92N6e2wgue2759wTGnfPkxQfNdVMdOOZTWtFF4rpW6tAvD0msPg8CB/DsHqWyWxhszwMNuK+6uy0UM7Np7K//TcjuofR4E8vCxHF+q/jJOLEycVJ0worr4u2Udalvw9TaQsERqOFlgtSZcfNxQVgiBdSHvVkJ6e2LqKmerIrPRaRcbMczZUpF04NGcFznWGYSO43Xb0eEcj/f2975EmMFxB32e2y3KgE0EATyxhSOLhkagqgdyMGLLnjqLUv7bV3XAmXxiq+SK8ycRihuoG81ivcewZJhcvzN+zm88f2JHGlV3JSjcybCgqBD49iYTKwIspvvFWGUivEATX+C9J6djufiKJrQ9m0y386e/vzT1JNvxcMRMbTaKhNz2eEcCTW1xRB/B8/MnE8zH8802PwX/6FaAW5+8ZqTKjmYsyW8Y4x2vXFBUCTVcGdDePvkGpDLyM3SOpqYTg7GvKZBy7CpHXxWiH5sSWhZ1I/4dKaMzkwYfyui2TEiTTGmAqJOnvb4YSJbJ/i30224UJ4Mn4DQ6xlke77HTtDan+VoqsFjNzPzIt1Aclwv3ZRSYTh/lDd55qGF+W/D2btIVQhv8wZGhz+XMGdGWAFtsXVJT6d/tDQdGxnX6FLTCvo/yn1+VbCawSMrn8sHjp0ozMufXnCK5A4rcG2HOXP6nPmvL+yWwlIrLmuddrAOBJ+csa1j8ECodDaZm0/yPLjm6rw/fSPu5J4yRQ0AvME3zPcqTPziswN+Uo5dp7lXeRs3/CzW2rkiV/z6JYOlD/RhoZ7Hk2lfMVguHfDdNSkDSmTG/8ENZz8n7Zd3ChCtrBcFCJt+mWC/bemAk9qlAeCDf/F44fveZ0wrkL5Rtp3wXPrT9r5P1/1KS9YD5A+ZP+bipzemXPqbYvr8cy1j+Cx48jAU9Kxz9/aWIv/tmlB2kI2mK6oUmlu/u6ocmG+6uGiB4ywmiA5+dPJu68Tx9eYyvveX+5OLNM+XsG9gdTQ/Mg9BLneinxpN7IDVCY6sFPEfqLJezGliPc3US4u4lwdxPh7ibC3U15wp0hQwAAAIDDqBAAAAAADqNCAAAAADiMCgEAAADgMCoEAAAAgMMKt7e3senHe3t79hEAF6h0wD6CK0jnAWD7Zc3fWXYUM4S7mwh3NxHubiLc3US4uylPuDNkCAAAAHAYFQIAAADAYVQIAAAAAIdRIQAAAAAcRoUAAAAAcBgVAgAAAMBhVAis4eeCWZ7J31rX9g9YO9GwStzedmRijwfguOtWcjpht9olqcX2mkjnLeH9cPHr9/TXUL9nTTr39ulKvMT3yG5yWVOfZ9XfOR8qBIouYFbOmzKYTs16rdNhU87KJBrrqvzJhpPdBhdq53FbxoF90+91KXqHA3Dd4WkozfC2sbSP9R+b8vEdqcV2GkqrsCMNCeQPd22R+o4UPg/tMUjjFVLV9dsfhOOOfw0LLXWFn8D1X9K4so9X4MW+x4ahQnDfkS/nKksYnkrZ7tKZhy5k9n70aWUGgC00ufygCh1Vad8F0n5sl+u+nIkK46+BBqLdunzrVEXO+xQCF1Flow/1nlQ7Y5l+isQQdQ27qjBdVVf3y7o3nG7L93gGVAj0DaFqiqeH9jm2R3SYQGQYkWk1UPs6syFIurvO61asXXakFXtdvMsxPLRMt0apfeq1Nf8YWqGANTSUv1QhQS4+Sn3X7sL2MT1D3ZQwvpHRCw7PWHfDvxvSW9R7pspOHy+qclCyzy2vNT6QT4byQJuHqn3h4+ZDZcz+8pl61JPGq/DrF587Wf7vsSAfV5WL2T67hUaSmDKH/i7eOWbHJXzO8NDnlvTt/pAlZZiVmyZI2e2McadqrkFzaHc4YlPDfXAhUzluT8f2uRYPw/G0fRw+zj9GLgZ2j2aPi4X/YNrUxwbfZ9g0x1U7/h57jFSn7Tu7awNsarjjcVwOdy/ub1Y8XRXiu80zpKlSbHfkC3ebl4XyxuW86xqMV9HzzPPXeb7p7wuEh8lbw/Fz+bmTPOR7pOTjd+1pVe0PlQtsGWC2zz6Pf5cs3zf8nlnKMFnoc2SVeGSeE2yVWaCoLWdE2AabGu7xCkFKImAjtB8xkwsFyZHOOzaegYQzlockPi/P2fjuOHfDfTPj6ao4H99jBTQ35Ar3SF6ZSdpr7PX2CrYphVpzTCAvjj7PdO4ED/keKelDvJyh2e/jH5v4ebIc45cx/O+crQyTRZ5wZ8hQ0Gzi2VjavyqmG2d5hxTWjhk3qorpv0fHCx5J7Vik9+/I7tAOpJTUnbxfCk1KHv3bEzkuSaR3VMq/q2gb6Xquvo4eBWBtpKUP2H56yIcejnLclm9MJM8vYciMX06a/OxKT6pSexO5rodHYnLJUWCwSyR/XSbXubNY8D180XzcLGbiL1YyG8qzkzD5uZpcprAmoxv1b1OOIsPUi6UD+0jJVYZZHSoEiYpS/8pEk02nV4oKR/ikyJvFREa/7EMAG234j8lqYxkytpwuBL5qSE+vSMcqdIvtlkQXT2MFTzvn0ms4ncpYT84OseP+Q/luxRRul+stmdPxgHM/+HskCFYiVKWyqicpz1Yqy+DXyIz/N42LSdRnjX6K1ZVhsqFCgC2lVw+ZR/jQFl1pYKmilPbtQwAbbCj9c/XfxRErC7lEt+hSGcihLEd6Oe/cKzEFlm+PbN1H98g85NwP/R5RE+mc2Ptn6XsuVnqdUvm4H6kqT9AqyzDZUCGYzQq3z302cA5KJB0bx3Qj9qT7M9q74838f8jvS5hIfNWVfuQ+8VobU4YdAVgvKl03HfYMF3KHzuP1MKGLAb9Pk0P5z3yjJIpvaub4fvRHXW3L+mN+7PUx5877PZKNZKRb5qNDne770s3ZYu8NDYp/F28okfUEZZgsqBAcvpf2cU8aJ4HlnPRNZscZvqdbeQOV5X2nKr36TiihGH7W3YsP+xGi4ruPJoKG7hOV0VTOVT2+857WRmATmIaexWN8sUX8vFxXBp6oVXVr6WE1Q5Xr6R/uii136RVMd8zSvba3zSzfqYe5BBtY5y3rucpSZvhMYAjRY86d93skKklJDw0K9TTY97fPMrO/c3VWDsxZUPep/q2EudWXYbKgQqDqe/XvUxnsN2RH3RhmnNarhogeH0ZrwsYqvuvOfnHaH39X+aW7+x76I0RlOdXjBSVwn5RvTJfe47tCATyHUCsctp63Br1yrhcJmecF/vaYVmsn2IVWQuUjs6mCqa5kRYav6Im3444ExvrbXwfOW5ayk2dN/m0L8Y86d87vEafLiXq+wJlUZq/dkdGJOucDhiTp7zK4CJzrVVdqHT09em71ZZjlCupC6GWJQvQbJ+zGliPc3US4u4lwdxPh7ibC3U15wp0eAgAAAMBhVAgAAAAAh1EhAAAAABxGhQAAAABwGBUCAAAAwGGF29vb2PTjvb09+wiAC1Q6YB/BFaTzALD9subvicuO/vfff/Lbb7/ZZ3AF4e4mwt1NhLubCHc3Ee5uyhPuDBkCAAAAHEaFAAAAAHAYFQIAAADAYVQIAAAAAIdRIQAAAACcJfL/gVTh9vp3sIoAAAAASUVORK5CYII=;" parent="1" vertex="1">
          <mxGeometry x="230" y="490" width="612" height="95.92" as="geometry" />
        </mxCell>
        <mxCell id="M3EC4ICY0nNeSRSvseWh-24" value="N" style="text;html=1;align=center;verticalAlign=middle;resizable=0;points=[];autosize=1;strokeColor=none;fillColor=none;" parent="1" vertex="1">
          <mxGeometry x="130" y="240" width="30" height="30" as="geometry" />
        </mxCell>
        <mxCell id="M3EC4ICY0nNeSRSvseWh-25" value="1" style="text;html=1;align=center;verticalAlign=middle;resizable=0;points=[];autosize=1;strokeColor=none;fillColor=none;" parent="1" vertex="1">
          <mxGeometry x="125" y="372" width="30" height="30" as="geometry" />
        </mxCell>
        <mxCell id="VrijSp0FFfZLznIkN_2N-1" value="Filme" style="rounded=1;whiteSpace=wrap;html=1;" parent="1" vertex="1">
          <mxGeometry x="50" y="190" width="110" height="50" as="geometry" />
        </mxCell>
        <mxCell id="VrijSp0FFfZLznIkN_2N-2" value="Genero" style="rounded=1;whiteSpace=wrap;html=1;" parent="1" vertex="1">
          <mxGeometry x="50" y="398" width="110" height="50" as="geometry" />
        </mxCell>
      </root>
    </mxGraphModel>
  </diagram>
  <diagram id="CIK4PLwykFLo3RgiAht6" name="Página-2">
    <mxGraphModel dx="2261" dy="764" grid="1" gridSize="10" guides="1" tooltips="1" connect="1" arrows="1" fold="1" page="1" pageScale="1" pageWidth="827" pageHeight="1169" math="0" shadow="0">
      <root>
        <mxCell id="0" />
        <mxCell id="1" parent="0" />
        <mxCell id="94ZLbXva7n1QPZ9abKf5-12" style="edgeStyle=orthogonalEdgeStyle;rounded=0;orthogonalLoop=1;jettySize=auto;html=1;entryX=1;entryY=0.5;entryDx=0;entryDy=0;" parent="1" source="9TO8uk0B-yhhJvf6nBg5-1" target="r3VB6InYWBcQ76C4kjVs-56" edge="1">
          <mxGeometry relative="1" as="geometry" />
        </mxCell>
        <mxCell id="94ZLbXva7n1QPZ9abKf5-23" style="edgeStyle=orthogonalEdgeStyle;rounded=0;orthogonalLoop=1;jettySize=auto;html=1;entryX=0;entryY=0.5;entryDx=0;entryDy=0;" parent="1" source="9TO8uk0B-yhhJvf6nBg5-1" target="r3VB6InYWBcQ76C4kjVs-57" edge="1">
          <mxGeometry relative="1" as="geometry">
            <Array as="points">
              <mxPoint x="380" y="560" />
            </Array>
          </mxGeometry>
        </mxCell>
        <mxCell id="9TO8uk0B-yhhJvf6nBg5-1" value="Pessoa" style="rounded=1;whiteSpace=wrap;html=1;" parent="1" vertex="1">
          <mxGeometry x="330" y="340" width="110" height="50" as="geometry" />
        </mxCell>
        <mxCell id="9TO8uk0B-yhhJvf6nBg5-2" value="Construa a modelagem que represente pessoas e seus dados, observando que:&#xa;&#xa;&#xa;- uma pessoa pode ter vários telefones e vários emails, porém, pode possuir somente uma CNH.&#xa;&#xa;&#xa;DQL&#xa;&#xa;&#xa;- listar as pessoas em ordem alfabética reversa, mostrando seus telefones, seus e-mails e suas CNHs" style="text;whiteSpace=wrap;" parent="1" vertex="1">
          <mxGeometry x="134" y="90" width="560" height="180" as="geometry" />
        </mxCell>
        <mxCell id="94ZLbXva7n1QPZ9abKf5-13" value="" style="edgeStyle=orthogonalEdgeStyle;rounded=0;orthogonalLoop=1;jettySize=auto;html=1;" parent="1" source="B_VLGKSNVDx-vFQi8Qmh-1" target="r3VB6InYWBcQ76C4kjVs-56" edge="1">
          <mxGeometry relative="1" as="geometry" />
        </mxCell>
        <mxCell id="B_VLGKSNVDx-vFQi8Qmh-1" value="Email" style="rounded=1;whiteSpace=wrap;html=1;" parent="1" vertex="1">
          <mxGeometry x="70" y="535" width="110" height="50" as="geometry" />
        </mxCell>
        <mxCell id="94ZLbXva7n1QPZ9abKf5-25" style="edgeStyle=orthogonalEdgeStyle;rounded=0;orthogonalLoop=1;jettySize=auto;html=1;exitX=0;exitY=0.5;exitDx=0;exitDy=0;entryX=1;entryY=0.5;entryDx=0;entryDy=0;" parent="1" source="B_VLGKSNVDx-vFQi8Qmh-2" target="r3VB6InYWBcQ76C4kjVs-57" edge="1">
          <mxGeometry relative="1" as="geometry" />
        </mxCell>
        <mxCell id="B_VLGKSNVDx-vFQi8Qmh-2" value="Telefone&amp;nbsp;" style="rounded=1;whiteSpace=wrap;html=1;" parent="1" vertex="1">
          <mxGeometry x="600" y="535" width="110" height="50" as="geometry" />
        </mxCell>
        <mxCell id="feXul_TAC31_Y7WAeXRr-4" value="N" style="text;html=1;align=center;verticalAlign=middle;resizable=0;points=[];autosize=1;strokeColor=none;fillColor=none;" parent="1" vertex="1">
          <mxGeometry x="180" y="520" width="30" height="30" as="geometry" />
        </mxCell>
        <mxCell id="WA3R8H33YoekJeaSQ5ve-3" value="N" style="text;html=1;align=center;verticalAlign=middle;resizable=0;points=[];autosize=1;strokeColor=none;fillColor=none;" parent="1" vertex="1">
          <mxGeometry x="570" y="530" width="30" height="30" as="geometry" />
        </mxCell>
        <mxCell id="5dJ8pxRICb9j2Zf73WeK-1" value="Conceitual" style="text;html=1;align=center;verticalAlign=middle;resizable=0;points=[];autosize=1;strokeColor=#b85450;fillColor=#f8cecc;" parent="1" vertex="1">
          <mxGeometry x="340" y="268" width="80" height="30" as="geometry" />
        </mxCell>
        <mxCell id="5dJ8pxRICb9j2Zf73WeK-2" value="Lógico" style="text;html=1;align=center;verticalAlign=middle;resizable=0;points=[];autosize=1;strokeColor=#b85450;fillColor=#f8cecc;" parent="1" vertex="1">
          <mxGeometry x="300" y="660" width="60" height="30" as="geometry" />
        </mxCell>
        <mxCell id="5dJ8pxRICb9j2Zf73WeK-3" value="Físico" style="text;html=1;align=center;verticalAlign=middle;resizable=0;points=[];autosize=1;strokeColor=#b85450;fillColor=#f8cecc;" parent="1" vertex="1">
          <mxGeometry x="800" y="660" width="60" height="30" as="geometry" />
        </mxCell>
        <mxCell id="r3VB6InYWBcQ76C4kjVs-30" value="Pessoa" style="shape=table;startSize=30;container=1;collapsible=1;childLayout=tableLayout;fixedRows=1;rowLines=0;fontStyle=1;align=center;resizeLast=1;html=1;" parent="1" vertex="1">
          <mxGeometry x="-40" y="820" width="180" height="90" as="geometry" />
        </mxCell>
        <mxCell id="r3VB6InYWBcQ76C4kjVs-31" value="" style="shape=tableRow;horizontal=0;startSize=0;swimlaneHead=0;swimlaneBody=0;fillColor=none;collapsible=0;dropTarget=0;points=[[0,0.5],[1,0.5]];portConstraint=eastwest;top=0;left=0;right=0;bottom=1;" parent="r3VB6InYWBcQ76C4kjVs-30" vertex="1">
          <mxGeometry y="30" width="180" height="30" as="geometry" />
        </mxCell>
        <mxCell id="r3VB6InYWBcQ76C4kjVs-32" value="PK" style="shape=partialRectangle;connectable=0;fillColor=none;top=0;left=0;bottom=0;right=0;fontStyle=1;overflow=hidden;whiteSpace=wrap;html=1;" parent="r3VB6InYWBcQ76C4kjVs-31" vertex="1">
          <mxGeometry width="30" height="30" as="geometry">
            <mxRectangle width="30" height="30" as="alternateBounds" />
          </mxGeometry>
        </mxCell>
        <mxCell id="r3VB6InYWBcQ76C4kjVs-33" value="IdPessoa" style="shape=partialRectangle;connectable=0;fillColor=none;top=0;left=0;bottom=0;right=0;align=left;spacingLeft=6;fontStyle=5;overflow=hidden;whiteSpace=wrap;html=1;" parent="r3VB6InYWBcQ76C4kjVs-31" vertex="1">
          <mxGeometry x="30" width="150" height="30" as="geometry">
            <mxRectangle width="150" height="30" as="alternateBounds" />
          </mxGeometry>
        </mxCell>
        <mxCell id="94ZLbXva7n1QPZ9abKf5-43" style="shape=tableRow;horizontal=0;startSize=0;swimlaneHead=0;swimlaneBody=0;fillColor=none;collapsible=0;dropTarget=0;points=[[0,0.5],[1,0.5]];portConstraint=eastwest;top=0;left=0;right=0;bottom=1;" parent="r3VB6InYWBcQ76C4kjVs-30" vertex="1">
          <mxGeometry y="60" width="180" height="30" as="geometry" />
        </mxCell>
        <mxCell id="94ZLbXva7n1QPZ9abKf5-44" style="shape=partialRectangle;connectable=0;fillColor=none;top=0;left=0;bottom=0;right=0;fontStyle=1;overflow=hidden;whiteSpace=wrap;html=1;" parent="94ZLbXva7n1QPZ9abKf5-43" vertex="1">
          <mxGeometry width="30" height="30" as="geometry">
            <mxRectangle width="30" height="30" as="alternateBounds" />
          </mxGeometry>
        </mxCell>
        <mxCell id="94ZLbXva7n1QPZ9abKf5-45" value="CNH" style="shape=partialRectangle;connectable=0;fillColor=none;top=0;left=0;bottom=0;right=0;align=left;spacingLeft=6;fontStyle=0;overflow=hidden;whiteSpace=wrap;html=1;" parent="94ZLbXva7n1QPZ9abKf5-43" vertex="1">
          <mxGeometry x="30" width="150" height="30" as="geometry">
            <mxRectangle width="150" height="30" as="alternateBounds" />
          </mxGeometry>
        </mxCell>
        <mxCell id="r3VB6InYWBcQ76C4kjVs-43" value="Email" style="shape=table;startSize=30;container=1;collapsible=1;childLayout=tableLayout;fixedRows=1;rowLines=0;fontStyle=1;align=center;resizeLast=1;html=1;" parent="1" vertex="1">
          <mxGeometry x="280" y="870" width="180" height="120" as="geometry" />
        </mxCell>
        <mxCell id="r3VB6InYWBcQ76C4kjVs-44" value="" style="shape=tableRow;horizontal=0;startSize=0;swimlaneHead=0;swimlaneBody=0;fillColor=none;collapsible=0;dropTarget=0;points=[[0,0.5],[1,0.5]];portConstraint=eastwest;top=0;left=0;right=0;bottom=1;" parent="r3VB6InYWBcQ76C4kjVs-43" vertex="1">
          <mxGeometry y="30" width="180" height="30" as="geometry" />
        </mxCell>
        <mxCell id="r3VB6InYWBcQ76C4kjVs-45" value="PK" style="shape=partialRectangle;connectable=0;fillColor=none;top=0;left=0;bottom=0;right=0;fontStyle=1;overflow=hidden;whiteSpace=wrap;html=1;" parent="r3VB6InYWBcQ76C4kjVs-44" vertex="1">
          <mxGeometry width="30" height="30" as="geometry">
            <mxRectangle width="30" height="30" as="alternateBounds" />
          </mxGeometry>
        </mxCell>
        <mxCell id="r3VB6InYWBcQ76C4kjVs-46" value="IdEmail" style="shape=partialRectangle;connectable=0;fillColor=none;top=0;left=0;bottom=0;right=0;align=left;spacingLeft=6;fontStyle=5;overflow=hidden;whiteSpace=wrap;html=1;" parent="r3VB6InYWBcQ76C4kjVs-44" vertex="1">
          <mxGeometry x="30" width="150" height="30" as="geometry">
            <mxRectangle width="150" height="30" as="alternateBounds" />
          </mxGeometry>
        </mxCell>
        <mxCell id="94ZLbXva7n1QPZ9abKf5-16" style="shape=tableRow;horizontal=0;startSize=0;swimlaneHead=0;swimlaneBody=0;fillColor=none;collapsible=0;dropTarget=0;points=[[0,0.5],[1,0.5]];portConstraint=eastwest;top=0;left=0;right=0;bottom=1;" parent="r3VB6InYWBcQ76C4kjVs-43" vertex="1">
          <mxGeometry y="60" width="180" height="30" as="geometry" />
        </mxCell>
        <mxCell id="94ZLbXva7n1QPZ9abKf5-17" value="FK" style="shape=partialRectangle;connectable=0;fillColor=none;top=0;left=0;bottom=0;right=0;fontStyle=1;overflow=hidden;whiteSpace=wrap;html=1;" parent="94ZLbXva7n1QPZ9abKf5-16" vertex="1">
          <mxGeometry width="30" height="30" as="geometry">
            <mxRectangle width="30" height="30" as="alternateBounds" />
          </mxGeometry>
        </mxCell>
        <mxCell id="94ZLbXva7n1QPZ9abKf5-18" value="IdPessoa" style="shape=partialRectangle;connectable=0;fillColor=none;top=0;left=0;bottom=0;right=0;align=left;spacingLeft=6;fontStyle=5;overflow=hidden;whiteSpace=wrap;html=1;" parent="94ZLbXva7n1QPZ9abKf5-16" vertex="1">
          <mxGeometry x="30" width="150" height="30" as="geometry">
            <mxRectangle width="150" height="30" as="alternateBounds" />
          </mxGeometry>
        </mxCell>
        <mxCell id="94ZLbXva7n1QPZ9abKf5-5" style="shape=tableRow;horizontal=0;startSize=0;swimlaneHead=0;swimlaneBody=0;fillColor=none;collapsible=0;dropTarget=0;points=[[0,0.5],[1,0.5]];portConstraint=eastwest;top=0;left=0;right=0;bottom=1;" parent="r3VB6InYWBcQ76C4kjVs-43" vertex="1">
          <mxGeometry y="90" width="180" height="30" as="geometry" />
        </mxCell>
        <mxCell id="94ZLbXva7n1QPZ9abKf5-6" style="shape=partialRectangle;connectable=0;fillColor=none;top=0;left=0;bottom=0;right=0;fontStyle=1;overflow=hidden;whiteSpace=wrap;html=1;" parent="94ZLbXva7n1QPZ9abKf5-5" vertex="1">
          <mxGeometry width="30" height="30" as="geometry">
            <mxRectangle width="30" height="30" as="alternateBounds" />
          </mxGeometry>
        </mxCell>
        <mxCell id="94ZLbXva7n1QPZ9abKf5-7" style="shape=partialRectangle;connectable=0;fillColor=none;top=0;left=0;bottom=0;right=0;align=left;spacingLeft=6;fontStyle=5;overflow=hidden;whiteSpace=wrap;html=1;" parent="94ZLbXva7n1QPZ9abKf5-5" vertex="1">
          <mxGeometry x="30" width="150" height="30" as="geometry">
            <mxRectangle width="150" height="30" as="alternateBounds" />
          </mxGeometry>
        </mxCell>
        <mxCell id="r3VB6InYWBcQ76C4kjVs-56" value="Possui" style="rhombus;whiteSpace=wrap;html=1;" parent="1" vertex="1">
          <mxGeometry x="210" y="520" width="80" height="80" as="geometry" />
        </mxCell>
        <mxCell id="r3VB6InYWBcQ76C4kjVs-57" value="Possui" style="rhombus;whiteSpace=wrap;html=1;" parent="1" vertex="1">
          <mxGeometry x="475" y="520" width="80" height="80" as="geometry" />
        </mxCell>
        <mxCell id="r3VB6InYWBcQ76C4kjVs-71" value="Telefone" style="shape=table;startSize=30;container=1;collapsible=1;childLayout=tableLayout;fixedRows=1;rowLines=0;fontStyle=1;align=center;resizeLast=1;html=1;" parent="1" vertex="1">
          <mxGeometry x="280" y="720" width="180" height="90" as="geometry" />
        </mxCell>
        <mxCell id="r3VB6InYWBcQ76C4kjVs-72" value="" style="shape=tableRow;horizontal=0;startSize=0;swimlaneHead=0;swimlaneBody=0;fillColor=none;collapsible=0;dropTarget=0;points=[[0,0.5],[1,0.5]];portConstraint=eastwest;top=0;left=0;right=0;bottom=1;" parent="r3VB6InYWBcQ76C4kjVs-71" vertex="1">
          <mxGeometry y="30" width="180" height="30" as="geometry" />
        </mxCell>
        <mxCell id="r3VB6InYWBcQ76C4kjVs-73" value="PK" style="shape=partialRectangle;connectable=0;fillColor=none;top=0;left=0;bottom=0;right=0;fontStyle=1;overflow=hidden;whiteSpace=wrap;html=1;" parent="r3VB6InYWBcQ76C4kjVs-72" vertex="1">
          <mxGeometry width="30" height="30" as="geometry">
            <mxRectangle width="30" height="30" as="alternateBounds" />
          </mxGeometry>
        </mxCell>
        <mxCell id="r3VB6InYWBcQ76C4kjVs-74" value="IdTelefone" style="shape=partialRectangle;connectable=0;fillColor=none;top=0;left=0;bottom=0;right=0;align=left;spacingLeft=6;fontStyle=5;overflow=hidden;whiteSpace=wrap;html=1;" parent="r3VB6InYWBcQ76C4kjVs-72" vertex="1">
          <mxGeometry x="30" width="150" height="30" as="geometry">
            <mxRectangle width="150" height="30" as="alternateBounds" />
          </mxGeometry>
        </mxCell>
        <mxCell id="94ZLbXva7n1QPZ9abKf5-8" style="shape=tableRow;horizontal=0;startSize=0;swimlaneHead=0;swimlaneBody=0;fillColor=none;collapsible=0;dropTarget=0;points=[[0,0.5],[1,0.5]];portConstraint=eastwest;top=0;left=0;right=0;bottom=1;" parent="r3VB6InYWBcQ76C4kjVs-71" vertex="1">
          <mxGeometry y="60" width="180" height="30" as="geometry" />
        </mxCell>
        <mxCell id="94ZLbXva7n1QPZ9abKf5-9" value="FK" style="shape=partialRectangle;connectable=0;fillColor=none;top=0;left=0;bottom=0;right=0;fontStyle=1;overflow=hidden;whiteSpace=wrap;html=1;" parent="94ZLbXva7n1QPZ9abKf5-8" vertex="1">
          <mxGeometry width="30" height="30" as="geometry">
            <mxRectangle width="30" height="30" as="alternateBounds" />
          </mxGeometry>
        </mxCell>
        <mxCell id="94ZLbXva7n1QPZ9abKf5-10" value="IdPessoa" style="shape=partialRectangle;connectable=0;fillColor=none;top=0;left=0;bottom=0;right=0;align=left;spacingLeft=6;fontStyle=5;overflow=hidden;whiteSpace=wrap;html=1;" parent="94ZLbXva7n1QPZ9abKf5-8" vertex="1">
          <mxGeometry x="30" width="150" height="30" as="geometry">
            <mxRectangle width="150" height="30" as="alternateBounds" />
          </mxGeometry>
        </mxCell>
        <mxCell id="94ZLbXva7n1QPZ9abKf5-14" value="1" style="text;html=1;align=center;verticalAlign=middle;resizable=0;points=[];autosize=1;strokeColor=none;fillColor=none;" parent="1" vertex="1">
          <mxGeometry x="305" y="338" width="30" height="30" as="geometry" />
        </mxCell>
        <mxCell id="94ZLbXva7n1QPZ9abKf5-15" value="" style="edgeStyle=entityRelationEdgeStyle;fontSize=12;html=1;endArrow=ERoneToMany;rounded=0;exitX=1;exitY=0.5;exitDx=0;exitDy=0;entryX=0;entryY=0.5;entryDx=0;entryDy=0;" parent="1" source="r3VB6InYWBcQ76C4kjVs-31" target="94ZLbXva7n1QPZ9abKf5-16" edge="1">
          <mxGeometry width="100" height="100" relative="1" as="geometry">
            <mxPoint x="150" y="810" as="sourcePoint" />
            <mxPoint x="250" y="710" as="targetPoint" />
          </mxGeometry>
        </mxCell>
        <mxCell id="94ZLbXva7n1QPZ9abKf5-24" value="1" style="text;html=1;align=center;verticalAlign=middle;resizable=0;points=[];autosize=1;strokeColor=none;fillColor=none;" parent="1" vertex="1">
          <mxGeometry x="375" y="388" width="30" height="30" as="geometry" />
        </mxCell>
        <mxCell id="94ZLbXva7n1QPZ9abKf5-26" value="" style="edgeStyle=entityRelationEdgeStyle;fontSize=12;html=1;endArrow=ERoneToMany;rounded=0;exitX=1;exitY=0.5;exitDx=0;exitDy=0;entryX=0;entryY=0.5;entryDx=0;entryDy=0;" parent="1" source="r3VB6InYWBcQ76C4kjVs-31" target="94ZLbXva7n1QPZ9abKf5-8" edge="1">
          <mxGeometry width="100" height="100" relative="1" as="geometry">
            <mxPoint x="130" y="805" as="sourcePoint" />
            <mxPoint x="190" y="1025" as="targetPoint" />
          </mxGeometry>
        </mxCell>
      </root>
    </mxGraphModel>
  </diagram>
  <diagram id="9yvtXY3ABwRa9UpGyb1P" name="Página-3">
    <mxGraphModel dx="2620" dy="2124" grid="1" gridSize="10" guides="1" tooltips="1" connect="1" arrows="1" fold="1" page="1" pageScale="1" pageWidth="827" pageHeight="1169" math="0" shadow="0">
      <root>
        <mxCell id="0" />
        <mxCell id="1" parent="0" />
        <mxCell id="_fbTzRQ2B8z-yTYOF-b4-3" style="edgeStyle=orthogonalEdgeStyle;rounded=0;orthogonalLoop=1;jettySize=auto;html=1;endArrow=none;endFill=0;" parent="1" source="_fbTzRQ2B8z-yTYOF-b4-4" target="gVPtTVeshbMzRCEr3tQi-1" edge="1">
          <mxGeometry relative="1" as="geometry" />
        </mxCell>
        <mxCell id="1o09qmfVLv_jUfJYJ82m-1" value="Empresa" style="rounded=1;whiteSpace=wrap;html=1;" parent="1" vertex="1">
          <mxGeometry x="380" y="250" width="110" height="50" as="geometry" />
        </mxCell>
        <mxCell id="L-kCkqswvjLCnkZQqmrJ-1" value="Construa o Modelo Entidade Relacionamento considerando o seguinte cenário:&#xa;&#xa;&#xa;- uma empresa possui vários veículos&#xa;- um veículo possui marca(gm, ford, fiat), modelo(onix, fiesta, argo) e placa&#xa;- um cliente (cpf, nome) aluga um ou mais veículos&#xa;&#xa;&#xa;DML&#xa;&#xa;&#xa;- um registro de aluguel deve conter qual cliente alugou, o veículo alugado, data de retirada e data de devolução&#xa;&#xa;&#xa;&#xa;&#xa;DQL&#xa;&#xa;&#xa;- listar todos os alugueis mostrando as datas de início e fim, o nome do cliente que alugou e nome do modelo do carro&#xa;- listar os alugueis de um determinado cliente mostrando seu nome, as datas de início e fim e o nome do modelo do carro" style="text;whiteSpace=wrap;" parent="1" vertex="1">
          <mxGeometry x="155" y="-150" width="560" height="370" as="geometry" />
        </mxCell>
        <mxCell id="3Gdx2IoPy-9fe4D4GQiT-26" style="edgeStyle=orthogonalEdgeStyle;rounded=0;orthogonalLoop=1;jettySize=auto;html=1;entryX=0.5;entryY=0;entryDx=0;entryDy=0;endArrow=none;endFill=0;" parent="1" source="gVPtTVeshbMzRCEr3tQi-1" target="3Gdx2IoPy-9fe4D4GQiT-11" edge="1">
          <mxGeometry relative="1" as="geometry" />
        </mxCell>
        <mxCell id="lxogaj1lnlNcVyDOHG0D-5" style="edgeStyle=orthogonalEdgeStyle;rounded=0;orthogonalLoop=1;jettySize=auto;html=1;endArrow=none;endFill=0;" parent="1" source="lxogaj1lnlNcVyDOHG0D-2" target="wl7UvJ_Po6SQF0nE-kdH-1" edge="1">
          <mxGeometry relative="1" as="geometry" />
        </mxCell>
        <mxCell id="gVPtTVeshbMzRCEr3tQi-1" value="Veículo" style="rounded=1;whiteSpace=wrap;html=1;" parent="1" vertex="1">
          <mxGeometry x="380" y="430" width="110" height="50" as="geometry" />
        </mxCell>
        <mxCell id="lxogaj1lnlNcVyDOHG0D-4" style="edgeStyle=orthogonalEdgeStyle;rounded=0;orthogonalLoop=1;jettySize=auto;html=1;endArrow=none;endFill=0;" parent="1" source="3Gdx2IoPy-9fe4D4GQiT-6" target="wl7UvJ_Po6SQF0nE-kdH-1" edge="1">
          <mxGeometry relative="1" as="geometry">
            <mxPoint x="765" y="390" as="targetPoint" />
          </mxGeometry>
        </mxCell>
        <mxCell id="lxogaj1lnlNcVyDOHG0D-8" style="edgeStyle=orthogonalEdgeStyle;rounded=0;orthogonalLoop=1;jettySize=auto;html=1;entryX=0.5;entryY=1;entryDx=0;entryDy=0;endArrow=none;endFill=0;" parent="1" source="3Gdx2IoPy-9fe4D4GQiT-6" target="FA2QmFLN-b5PZlBfIKj7-9" edge="1">
          <mxGeometry relative="1" as="geometry" />
        </mxCell>
        <mxCell id="lxogaj1lnlNcVyDOHG0D-9" style="edgeStyle=orthogonalEdgeStyle;rounded=0;orthogonalLoop=1;jettySize=auto;html=1;entryX=0;entryY=0.5;entryDx=0;entryDy=0;endArrow=none;endFill=0;" parent="1" source="3Gdx2IoPy-9fe4D4GQiT-6" target="FA2QmFLN-b5PZlBfIKj7-8" edge="1">
          <mxGeometry relative="1" as="geometry" />
        </mxCell>
        <mxCell id="3Gdx2IoPy-9fe4D4GQiT-6" value="Cliente" style="rounded=1;whiteSpace=wrap;html=1;" parent="1" vertex="1">
          <mxGeometry x="710" y="250" width="110" height="50" as="geometry" />
        </mxCell>
        <mxCell id="llFGypBDKr4rj9-5li1d-9" style="edgeStyle=orthogonalEdgeStyle;rounded=0;orthogonalLoop=1;jettySize=auto;html=1;entryX=0.5;entryY=0;entryDx=0;entryDy=0;endArrow=none;endFill=0;" parent="1" source="3Gdx2IoPy-9fe4D4GQiT-11" target="llFGypBDKr4rj9-5li1d-7" edge="1">
          <mxGeometry relative="1" as="geometry" />
        </mxCell>
        <mxCell id="3Gdx2IoPy-9fe4D4GQiT-11" value="Possui" style="rhombus;whiteSpace=wrap;html=1;" parent="1" vertex="1">
          <mxGeometry x="397.5" y="514.5" width="75" height="70" as="geometry" />
        </mxCell>
        <mxCell id="3Gdx2IoPy-9fe4D4GQiT-32" style="edgeStyle=orthogonalEdgeStyle;rounded=0;orthogonalLoop=1;jettySize=auto;html=1;exitX=0.5;exitY=1;exitDx=0;exitDy=0;" parent="1" source="3Gdx2IoPy-9fe4D4GQiT-6" target="3Gdx2IoPy-9fe4D4GQiT-6" edge="1">
          <mxGeometry relative="1" as="geometry" />
        </mxCell>
        <mxCell id="FA2QmFLN-b5PZlBfIKj7-5" value="1" style="text;html=1;align=center;verticalAlign=middle;resizable=0;points=[];autosize=1;strokeColor=none;fillColor=none;" parent="1" vertex="1">
          <mxGeometry x="470" y="297.5" width="30" height="30" as="geometry" />
        </mxCell>
        <mxCell id="FA2QmFLN-b5PZlBfIKj7-6" value="1" style="text;html=1;align=center;verticalAlign=middle;resizable=0;points=[];autosize=1;strokeColor=none;fillColor=none;" parent="1" vertex="1">
          <mxGeometry x="490" y="420" width="30" height="30" as="geometry" />
        </mxCell>
        <mxCell id="FA2QmFLN-b5PZlBfIKj7-8" value="Nome" style="ellipse;whiteSpace=wrap;html=1;" parent="1" vertex="1">
          <mxGeometry x="890" y="252.5" width="70" height="45" as="geometry" />
        </mxCell>
        <mxCell id="FA2QmFLN-b5PZlBfIKj7-9" value="CPF" style="ellipse;whiteSpace=wrap;html=1;" parent="1" vertex="1">
          <mxGeometry x="730" y="150" width="70" height="45" as="geometry" />
        </mxCell>
        <mxCell id="bEb-WipSz3KxgpMOkR6_-2" value="1" style="text;html=1;align=center;verticalAlign=middle;resizable=0;points=[];autosize=1;strokeColor=none;fillColor=none;" parent="1" vertex="1">
          <mxGeometry x="797" y="297.5" width="30" height="30" as="geometry" />
        </mxCell>
        <mxCell id="llFGypBDKr4rj9-5li1d-3" style="edgeStyle=orthogonalEdgeStyle;rounded=0;orthogonalLoop=1;jettySize=auto;html=1;entryX=0;entryY=0.5;entryDx=0;entryDy=0;endArrow=none;endFill=0;" parent="1" source="llFGypBDKr4rj9-5li1d-1" target="3Gdx2IoPy-9fe4D4GQiT-11" edge="1">
          <mxGeometry relative="1" as="geometry" />
        </mxCell>
        <mxCell id="llFGypBDKr4rj9-5li1d-1" value="Marca" style="rounded=1;whiteSpace=wrap;html=1;" parent="1" vertex="1">
          <mxGeometry x="210" y="524.5" width="110" height="50" as="geometry" />
        </mxCell>
        <mxCell id="llFGypBDKr4rj9-5li1d-5" style="edgeStyle=orthogonalEdgeStyle;rounded=0;orthogonalLoop=1;jettySize=auto;html=1;entryX=1;entryY=0.5;entryDx=0;entryDy=0;endArrow=none;endFill=0;" parent="1" source="llFGypBDKr4rj9-5li1d-2" target="3Gdx2IoPy-9fe4D4GQiT-11" edge="1">
          <mxGeometry relative="1" as="geometry" />
        </mxCell>
        <mxCell id="llFGypBDKr4rj9-5li1d-2" value="Modelo" style="rounded=1;whiteSpace=wrap;html=1;" parent="1" vertex="1">
          <mxGeometry x="550" y="524.5" width="110" height="50" as="geometry" />
        </mxCell>
        <mxCell id="llFGypBDKr4rj9-5li1d-7" value="Placa" style="ellipse;whiteSpace=wrap;html=1;" parent="1" vertex="1">
          <mxGeometry x="400" y="650" width="70" height="45" as="geometry" />
        </mxCell>
        <mxCell id="llFGypBDKr4rj9-5li1d-10" value="N" style="text;html=1;align=center;verticalAlign=middle;resizable=0;points=[];autosize=1;strokeColor=none;fillColor=none;" parent="1" vertex="1">
          <mxGeometry x="320" y="514.5" width="30" height="30" as="geometry" />
        </mxCell>
        <mxCell id="llFGypBDKr4rj9-5li1d-12" value="N" style="text;html=1;align=center;verticalAlign=middle;resizable=0;points=[];autosize=1;strokeColor=none;fillColor=none;" parent="1" vertex="1">
          <mxGeometry x="455" y="480" width="30" height="30" as="geometry" />
        </mxCell>
        <mxCell id="_fbTzRQ2B8z-yTYOF-b4-5" value="" style="edgeStyle=orthogonalEdgeStyle;rounded=0;orthogonalLoop=1;jettySize=auto;html=1;endArrow=none;endFill=0;" parent="1" source="1o09qmfVLv_jUfJYJ82m-1" target="_fbTzRQ2B8z-yTYOF-b4-4" edge="1">
          <mxGeometry relative="1" as="geometry">
            <mxPoint x="435" y="300" as="sourcePoint" />
            <mxPoint x="435" y="430" as="targetPoint" />
          </mxGeometry>
        </mxCell>
        <mxCell id="_fbTzRQ2B8z-yTYOF-b4-4" value="Possui" style="rhombus;whiteSpace=wrap;html=1;" parent="1" vertex="1">
          <mxGeometry x="397.5" y="330" width="75" height="70" as="geometry" />
        </mxCell>
        <mxCell id="wl7UvJ_Po6SQF0nE-kdH-1" value="Aluguel" style="rounded=1;whiteSpace=wrap;html=1;" parent="1" vertex="1">
          <mxGeometry x="710" y="430" width="110" height="50" as="geometry" />
        </mxCell>
        <mxCell id="lxogaj1lnlNcVyDOHG0D-1" value="Possui" style="rhombus;whiteSpace=wrap;html=1;" parent="1" vertex="1">
          <mxGeometry x="727.5" y="330" width="75" height="70" as="geometry" />
        </mxCell>
        <mxCell id="lxogaj1lnlNcVyDOHG0D-6" value="" style="edgeStyle=orthogonalEdgeStyle;rounded=0;orthogonalLoop=1;jettySize=auto;html=1;endArrow=none;endFill=0;" parent="1" source="gVPtTVeshbMzRCEr3tQi-1" target="lxogaj1lnlNcVyDOHG0D-2" edge="1">
          <mxGeometry relative="1" as="geometry">
            <mxPoint x="490" y="455" as="sourcePoint" />
            <mxPoint x="710" y="455" as="targetPoint" />
          </mxGeometry>
        </mxCell>
        <mxCell id="lxogaj1lnlNcVyDOHG0D-2" value="Possui" style="rhombus;whiteSpace=wrap;html=1;" parent="1" vertex="1">
          <mxGeometry x="560" y="420" width="75" height="70" as="geometry" />
        </mxCell>
        <mxCell id="lxogaj1lnlNcVyDOHG0D-10" value="N" style="text;html=1;align=center;verticalAlign=middle;resizable=0;points=[];autosize=1;strokeColor=none;fillColor=none;" parent="1" vertex="1">
          <mxGeometry x="795" y="408" width="30" height="30" as="geometry" />
        </mxCell>
        <mxCell id="lxogaj1lnlNcVyDOHG0D-11" value="N" style="text;html=1;align=center;verticalAlign=middle;resizable=0;points=[];autosize=1;strokeColor=none;fillColor=none;" parent="1" vertex="1">
          <mxGeometry x="680" y="420" width="30" height="30" as="geometry" />
        </mxCell>
        <mxCell id="lxogaj1lnlNcVyDOHG0D-12" value="N" style="text;html=1;align=center;verticalAlign=middle;resizable=0;points=[];autosize=1;strokeColor=none;fillColor=none;" parent="1" vertex="1">
          <mxGeometry x="455" y="398" width="30" height="30" as="geometry" />
        </mxCell>
        <mxCell id="lxogaj1lnlNcVyDOHG0D-13" value="N" style="text;html=1;align=center;verticalAlign=middle;resizable=0;points=[];autosize=1;strokeColor=none;fillColor=none;" parent="1" vertex="1">
          <mxGeometry x="525" y="518" width="30" height="30" as="geometry" />
        </mxCell>
        <mxCell id="lxogaj1lnlNcVyDOHG0D-14" value="N" style="text;html=1;align=center;verticalAlign=middle;resizable=0;points=[];autosize=1;strokeColor=none;fillColor=none;" parent="1" vertex="1">
          <mxGeometry x="384" y="480" width="30" height="30" as="geometry" />
        </mxCell>
        <mxCell id="teZ9aMTxfy1Q8q095ExO-1" value="Empresa" style="shape=table;startSize=30;container=1;collapsible=1;childLayout=tableLayout;fixedRows=1;rowLines=0;fontStyle=1;align=center;resizeLast=1;html=1;" parent="1" vertex="1">
          <mxGeometry x="245" y="990" width="180" height="120" as="geometry" />
        </mxCell>
        <mxCell id="4lzAWRlnzbIwusI8Ls7z-53" value="" style="shape=tableRow;horizontal=0;startSize=0;swimlaneHead=0;swimlaneBody=0;fillColor=none;collapsible=0;dropTarget=0;points=[[0,0.5],[1,0.5]];portConstraint=eastwest;top=0;left=0;right=0;bottom=1;" parent="teZ9aMTxfy1Q8q095ExO-1" vertex="1">
          <mxGeometry y="30" width="180" height="30" as="geometry" />
        </mxCell>
        <mxCell id="4lzAWRlnzbIwusI8Ls7z-54" value="FK" style="shape=partialRectangle;connectable=0;fillColor=none;top=0;left=0;bottom=0;right=0;fontStyle=1;overflow=hidden;whiteSpace=wrap;html=1;" parent="4lzAWRlnzbIwusI8Ls7z-53" vertex="1">
          <mxGeometry width="30" height="30" as="geometry">
            <mxRectangle width="30" height="30" as="alternateBounds" />
          </mxGeometry>
        </mxCell>
        <mxCell id="4lzAWRlnzbIwusI8Ls7z-55" value="IdVeiculo" style="shape=partialRectangle;connectable=0;fillColor=none;top=0;left=0;bottom=0;right=0;align=left;spacingLeft=6;fontStyle=5;overflow=hidden;whiteSpace=wrap;html=1;" parent="4lzAWRlnzbIwusI8Ls7z-53" vertex="1">
          <mxGeometry x="30" width="150" height="30" as="geometry">
            <mxRectangle width="150" height="30" as="alternateBounds" />
          </mxGeometry>
        </mxCell>
        <mxCell id="teZ9aMTxfy1Q8q095ExO-2" value="" style="shape=tableRow;horizontal=0;startSize=0;swimlaneHead=0;swimlaneBody=0;fillColor=none;collapsible=0;dropTarget=0;points=[[0,0.5],[1,0.5]];portConstraint=eastwest;top=0;left=0;right=0;bottom=1;" parent="teZ9aMTxfy1Q8q095ExO-1" vertex="1">
          <mxGeometry y="60" width="180" height="30" as="geometry" />
        </mxCell>
        <mxCell id="teZ9aMTxfy1Q8q095ExO-3" value="PK" style="shape=partialRectangle;connectable=0;fillColor=none;top=0;left=0;bottom=0;right=0;fontStyle=1;overflow=hidden;whiteSpace=wrap;html=1;" parent="teZ9aMTxfy1Q8q095ExO-2" vertex="1">
          <mxGeometry width="30" height="30" as="geometry">
            <mxRectangle width="30" height="30" as="alternateBounds" />
          </mxGeometry>
        </mxCell>
        <mxCell id="teZ9aMTxfy1Q8q095ExO-4" value="NomeEmpresa" style="shape=partialRectangle;connectable=0;fillColor=none;top=0;left=0;bottom=0;right=0;align=left;spacingLeft=6;fontStyle=5;overflow=hidden;whiteSpace=wrap;html=1;" parent="teZ9aMTxfy1Q8q095ExO-2" vertex="1">
          <mxGeometry x="30" width="150" height="30" as="geometry">
            <mxRectangle width="150" height="30" as="alternateBounds" />
          </mxGeometry>
        </mxCell>
        <mxCell id="wBh2vxfzaEwKWpKhTsX6-22" style="shape=tableRow;horizontal=0;startSize=0;swimlaneHead=0;swimlaneBody=0;fillColor=none;collapsible=0;dropTarget=0;points=[[0,0.5],[1,0.5]];portConstraint=eastwest;top=0;left=0;right=0;bottom=1;" parent="teZ9aMTxfy1Q8q095ExO-1" vertex="1">
          <mxGeometry y="90" width="180" height="30" as="geometry" />
        </mxCell>
        <mxCell id="wBh2vxfzaEwKWpKhTsX6-23" value="PK" style="shape=partialRectangle;connectable=0;fillColor=none;top=0;left=0;bottom=0;right=0;fontStyle=1;overflow=hidden;whiteSpace=wrap;html=1;" parent="wBh2vxfzaEwKWpKhTsX6-22" vertex="1">
          <mxGeometry width="30" height="30" as="geometry">
            <mxRectangle width="30" height="30" as="alternateBounds" />
          </mxGeometry>
        </mxCell>
        <mxCell id="wBh2vxfzaEwKWpKhTsX6-24" value="IdEmpresa" style="shape=partialRectangle;connectable=0;fillColor=none;top=0;left=0;bottom=0;right=0;align=left;spacingLeft=6;fontStyle=5;overflow=hidden;whiteSpace=wrap;html=1;" parent="wBh2vxfzaEwKWpKhTsX6-22" vertex="1">
          <mxGeometry x="30" width="150" height="30" as="geometry">
            <mxRectangle width="150" height="30" as="alternateBounds" />
          </mxGeometry>
        </mxCell>
        <mxCell id="4lzAWRlnzbIwusI8Ls7z-1" value="Veiculo" style="shape=table;startSize=30;container=1;collapsible=1;childLayout=tableLayout;fixedRows=1;rowLines=0;fontStyle=1;align=center;resizeLast=1;html=1;" parent="1" vertex="1">
          <mxGeometry x="-40" y="1170" width="180" height="150" as="geometry" />
        </mxCell>
        <mxCell id="4lzAWRlnzbIwusI8Ls7z-2" value="" style="shape=tableRow;horizontal=0;startSize=0;swimlaneHead=0;swimlaneBody=0;fillColor=none;collapsible=0;dropTarget=0;points=[[0,0.5],[1,0.5]];portConstraint=eastwest;top=0;left=0;right=0;bottom=1;" parent="4lzAWRlnzbIwusI8Ls7z-1" vertex="1">
          <mxGeometry y="30" width="180" height="30" as="geometry" />
        </mxCell>
        <mxCell id="4lzAWRlnzbIwusI8Ls7z-3" value="PK" style="shape=partialRectangle;connectable=0;fillColor=none;top=0;left=0;bottom=0;right=0;fontStyle=1;overflow=hidden;whiteSpace=wrap;html=1;" parent="4lzAWRlnzbIwusI8Ls7z-2" vertex="1">
          <mxGeometry width="30" height="30" as="geometry">
            <mxRectangle width="30" height="30" as="alternateBounds" />
          </mxGeometry>
        </mxCell>
        <mxCell id="4lzAWRlnzbIwusI8Ls7z-4" value="IdVeiculo" style="shape=partialRectangle;connectable=0;fillColor=none;top=0;left=0;bottom=0;right=0;align=left;spacingLeft=6;fontStyle=5;overflow=hidden;whiteSpace=wrap;html=1;" parent="4lzAWRlnzbIwusI8Ls7z-2" vertex="1">
          <mxGeometry x="30" width="150" height="30" as="geometry">
            <mxRectangle width="150" height="30" as="alternateBounds" />
          </mxGeometry>
        </mxCell>
        <mxCell id="4lzAWRlnzbIwusI8Ls7z-105" style="shape=tableRow;horizontal=0;startSize=0;swimlaneHead=0;swimlaneBody=0;fillColor=none;collapsible=0;dropTarget=0;points=[[0,0.5],[1,0.5]];portConstraint=eastwest;top=0;left=0;right=0;bottom=1;" parent="4lzAWRlnzbIwusI8Ls7z-1" vertex="1">
          <mxGeometry y="60" width="180" height="30" as="geometry" />
        </mxCell>
        <mxCell id="4lzAWRlnzbIwusI8Ls7z-106" value="FK" style="shape=partialRectangle;connectable=0;fillColor=none;top=0;left=0;bottom=0;right=0;fontStyle=1;overflow=hidden;whiteSpace=wrap;html=1;" parent="4lzAWRlnzbIwusI8Ls7z-105" vertex="1">
          <mxGeometry width="30" height="30" as="geometry">
            <mxRectangle width="30" height="30" as="alternateBounds" />
          </mxGeometry>
        </mxCell>
        <mxCell id="4lzAWRlnzbIwusI8Ls7z-107" value="IdModelo" style="shape=partialRectangle;connectable=0;fillColor=none;top=0;left=0;bottom=0;right=0;align=left;spacingLeft=6;fontStyle=5;overflow=hidden;whiteSpace=wrap;html=1;" parent="4lzAWRlnzbIwusI8Ls7z-105" vertex="1">
          <mxGeometry x="30" width="150" height="30" as="geometry">
            <mxRectangle width="150" height="30" as="alternateBounds" />
          </mxGeometry>
        </mxCell>
        <mxCell id="wBh2vxfzaEwKWpKhTsX6-1" style="shape=tableRow;horizontal=0;startSize=0;swimlaneHead=0;swimlaneBody=0;fillColor=none;collapsible=0;dropTarget=0;points=[[0,0.5],[1,0.5]];portConstraint=eastwest;top=0;left=0;right=0;bottom=1;" parent="4lzAWRlnzbIwusI8Ls7z-1" vertex="1">
          <mxGeometry y="90" width="180" height="30" as="geometry" />
        </mxCell>
        <mxCell id="wBh2vxfzaEwKWpKhTsX6-2" value="FK" style="shape=partialRectangle;connectable=0;fillColor=none;top=0;left=0;bottom=0;right=0;fontStyle=1;overflow=hidden;whiteSpace=wrap;html=1;" parent="wBh2vxfzaEwKWpKhTsX6-1" vertex="1">
          <mxGeometry width="30" height="30" as="geometry">
            <mxRectangle width="30" height="30" as="alternateBounds" />
          </mxGeometry>
        </mxCell>
        <mxCell id="wBh2vxfzaEwKWpKhTsX6-3" value="IdMarca" style="shape=partialRectangle;connectable=0;fillColor=none;top=0;left=0;bottom=0;right=0;align=left;spacingLeft=6;fontStyle=5;overflow=hidden;whiteSpace=wrap;html=1;" parent="wBh2vxfzaEwKWpKhTsX6-1" vertex="1">
          <mxGeometry x="30" width="150" height="30" as="geometry">
            <mxRectangle width="150" height="30" as="alternateBounds" />
          </mxGeometry>
        </mxCell>
        <mxCell id="wBh2vxfzaEwKWpKhTsX6-28" style="shape=tableRow;horizontal=0;startSize=0;swimlaneHead=0;swimlaneBody=0;fillColor=none;collapsible=0;dropTarget=0;points=[[0,0.5],[1,0.5]];portConstraint=eastwest;top=0;left=0;right=0;bottom=1;" parent="4lzAWRlnzbIwusI8Ls7z-1" vertex="1">
          <mxGeometry y="120" width="180" height="30" as="geometry" />
        </mxCell>
        <mxCell id="wBh2vxfzaEwKWpKhTsX6-29" value="FK" style="shape=partialRectangle;connectable=0;fillColor=none;top=0;left=0;bottom=0;right=0;fontStyle=1;overflow=hidden;whiteSpace=wrap;html=1;" parent="wBh2vxfzaEwKWpKhTsX6-28" vertex="1">
          <mxGeometry width="30" height="30" as="geometry">
            <mxRectangle width="30" height="30" as="alternateBounds" />
          </mxGeometry>
        </mxCell>
        <mxCell id="wBh2vxfzaEwKWpKhTsX6-30" value="IdEmpresa" style="shape=partialRectangle;connectable=0;fillColor=none;top=0;left=0;bottom=0;right=0;align=left;spacingLeft=6;fontStyle=5;overflow=hidden;whiteSpace=wrap;html=1;" parent="wBh2vxfzaEwKWpKhTsX6-28" vertex="1">
          <mxGeometry x="30" width="150" height="30" as="geometry">
            <mxRectangle width="150" height="30" as="alternateBounds" />
          </mxGeometry>
        </mxCell>
        <mxCell id="4lzAWRlnzbIwusI8Ls7z-14" value="Aluguel" style="shape=table;startSize=30;container=1;collapsible=1;childLayout=tableLayout;fixedRows=1;rowLines=0;fontStyle=1;align=center;resizeLast=1;html=1;" parent="1" vertex="1">
          <mxGeometry x="200" y="1270" width="180" height="150" as="geometry" />
        </mxCell>
        <mxCell id="4lzAWRlnzbIwusI8Ls7z-15" value="" style="shape=tableRow;horizontal=0;startSize=0;swimlaneHead=0;swimlaneBody=0;fillColor=none;collapsible=0;dropTarget=0;points=[[0,0.5],[1,0.5]];portConstraint=eastwest;top=0;left=0;right=0;bottom=1;" parent="4lzAWRlnzbIwusI8Ls7z-14" vertex="1">
          <mxGeometry y="30" width="180" height="30" as="geometry" />
        </mxCell>
        <mxCell id="4lzAWRlnzbIwusI8Ls7z-16" value="FK" style="shape=partialRectangle;connectable=0;fillColor=none;top=0;left=0;bottom=0;right=0;fontStyle=1;overflow=hidden;whiteSpace=wrap;html=1;" parent="4lzAWRlnzbIwusI8Ls7z-15" vertex="1">
          <mxGeometry width="30" height="30" as="geometry">
            <mxRectangle width="30" height="30" as="alternateBounds" />
          </mxGeometry>
        </mxCell>
        <mxCell id="4lzAWRlnzbIwusI8Ls7z-17" value="IdCliente" style="shape=partialRectangle;connectable=0;fillColor=none;top=0;left=0;bottom=0;right=0;align=left;spacingLeft=6;fontStyle=5;overflow=hidden;whiteSpace=wrap;html=1;" parent="4lzAWRlnzbIwusI8Ls7z-15" vertex="1">
          <mxGeometry x="30" width="150" height="30" as="geometry">
            <mxRectangle width="150" height="30" as="alternateBounds" />
          </mxGeometry>
        </mxCell>
        <mxCell id="4lzAWRlnzbIwusI8Ls7z-99" style="shape=tableRow;horizontal=0;startSize=0;swimlaneHead=0;swimlaneBody=0;fillColor=none;collapsible=0;dropTarget=0;points=[[0,0.5],[1,0.5]];portConstraint=eastwest;top=0;left=0;right=0;bottom=1;" parent="4lzAWRlnzbIwusI8Ls7z-14" vertex="1">
          <mxGeometry y="60" width="180" height="30" as="geometry" />
        </mxCell>
        <mxCell id="4lzAWRlnzbIwusI8Ls7z-100" value="PK" style="shape=partialRectangle;connectable=0;fillColor=none;top=0;left=0;bottom=0;right=0;fontStyle=1;overflow=hidden;whiteSpace=wrap;html=1;" parent="4lzAWRlnzbIwusI8Ls7z-99" vertex="1">
          <mxGeometry width="30" height="30" as="geometry">
            <mxRectangle width="30" height="30" as="alternateBounds" />
          </mxGeometry>
        </mxCell>
        <mxCell id="4lzAWRlnzbIwusI8Ls7z-101" value="Valor" style="shape=partialRectangle;connectable=0;fillColor=none;top=0;left=0;bottom=0;right=0;align=left;spacingLeft=6;fontStyle=5;overflow=hidden;whiteSpace=wrap;html=1;" parent="4lzAWRlnzbIwusI8Ls7z-99" vertex="1">
          <mxGeometry x="30" width="150" height="30" as="geometry">
            <mxRectangle width="150" height="30" as="alternateBounds" />
          </mxGeometry>
        </mxCell>
        <mxCell id="wBh2vxfzaEwKWpKhTsX6-34" style="shape=tableRow;horizontal=0;startSize=0;swimlaneHead=0;swimlaneBody=0;fillColor=none;collapsible=0;dropTarget=0;points=[[0,0.5],[1,0.5]];portConstraint=eastwest;top=0;left=0;right=0;bottom=1;" parent="4lzAWRlnzbIwusI8Ls7z-14" vertex="1">
          <mxGeometry y="90" width="180" height="30" as="geometry" />
        </mxCell>
        <mxCell id="wBh2vxfzaEwKWpKhTsX6-35" value="FK" style="shape=partialRectangle;connectable=0;fillColor=none;top=0;left=0;bottom=0;right=0;fontStyle=1;overflow=hidden;whiteSpace=wrap;html=1;" parent="wBh2vxfzaEwKWpKhTsX6-34" vertex="1">
          <mxGeometry width="30" height="30" as="geometry">
            <mxRectangle width="30" height="30" as="alternateBounds" />
          </mxGeometry>
        </mxCell>
        <mxCell id="wBh2vxfzaEwKWpKhTsX6-36" value="IdVeiculo" style="shape=partialRectangle;connectable=0;fillColor=none;top=0;left=0;bottom=0;right=0;align=left;spacingLeft=6;fontStyle=5;overflow=hidden;whiteSpace=wrap;html=1;" parent="wBh2vxfzaEwKWpKhTsX6-34" vertex="1">
          <mxGeometry x="30" width="150" height="30" as="geometry">
            <mxRectangle width="150" height="30" as="alternateBounds" />
          </mxGeometry>
        </mxCell>
        <mxCell id="4lzAWRlnzbIwusI8Ls7z-18" value="" style="shape=tableRow;horizontal=0;startSize=0;swimlaneHead=0;swimlaneBody=0;fillColor=none;collapsible=0;dropTarget=0;points=[[0,0.5],[1,0.5]];portConstraint=eastwest;top=0;left=0;right=0;bottom=0;" parent="4lzAWRlnzbIwusI8Ls7z-14" vertex="1">
          <mxGeometry y="120" width="180" height="30" as="geometry" />
        </mxCell>
        <mxCell id="4lzAWRlnzbIwusI8Ls7z-19" value="" style="shape=partialRectangle;connectable=0;fillColor=none;top=0;left=0;bottom=0;right=0;editable=1;overflow=hidden;whiteSpace=wrap;html=1;" parent="4lzAWRlnzbIwusI8Ls7z-18" vertex="1">
          <mxGeometry width="30" height="30" as="geometry">
            <mxRectangle width="30" height="30" as="alternateBounds" />
          </mxGeometry>
        </mxCell>
        <mxCell id="4lzAWRlnzbIwusI8Ls7z-20" value="" style="shape=partialRectangle;connectable=0;fillColor=none;top=0;left=0;bottom=0;right=0;align=left;spacingLeft=6;overflow=hidden;whiteSpace=wrap;html=1;" parent="4lzAWRlnzbIwusI8Ls7z-18" vertex="1">
          <mxGeometry x="30" width="150" height="30" as="geometry">
            <mxRectangle width="150" height="30" as="alternateBounds" />
          </mxGeometry>
        </mxCell>
        <mxCell id="4lzAWRlnzbIwusI8Ls7z-27" value="Marca" style="shape=table;startSize=30;container=1;collapsible=1;childLayout=tableLayout;fixedRows=1;rowLines=0;fontStyle=1;align=center;resizeLast=1;html=1;" parent="1" vertex="1">
          <mxGeometry x="-280" y="1020" width="180" height="120" as="geometry" />
        </mxCell>
        <mxCell id="4lzAWRlnzbIwusI8Ls7z-28" value="" style="shape=tableRow;horizontal=0;startSize=0;swimlaneHead=0;swimlaneBody=0;fillColor=none;collapsible=0;dropTarget=0;points=[[0,0.5],[1,0.5]];portConstraint=eastwest;top=0;left=0;right=0;bottom=1;" parent="4lzAWRlnzbIwusI8Ls7z-27" vertex="1">
          <mxGeometry y="30" width="180" height="30" as="geometry" />
        </mxCell>
        <mxCell id="4lzAWRlnzbIwusI8Ls7z-29" value="FK" style="shape=partialRectangle;connectable=0;fillColor=none;top=0;left=0;bottom=0;right=0;fontStyle=1;overflow=hidden;whiteSpace=wrap;html=1;" parent="4lzAWRlnzbIwusI8Ls7z-28" vertex="1">
          <mxGeometry width="30" height="30" as="geometry">
            <mxRectangle width="30" height="30" as="alternateBounds" />
          </mxGeometry>
        </mxCell>
        <mxCell id="4lzAWRlnzbIwusI8Ls7z-30" value="IdVeiculo" style="shape=partialRectangle;connectable=0;fillColor=none;top=0;left=0;bottom=0;right=0;align=left;spacingLeft=6;fontStyle=5;overflow=hidden;whiteSpace=wrap;html=1;" parent="4lzAWRlnzbIwusI8Ls7z-28" vertex="1">
          <mxGeometry x="30" width="150" height="30" as="geometry">
            <mxRectangle width="150" height="30" as="alternateBounds" />
          </mxGeometry>
        </mxCell>
        <mxCell id="4lzAWRlnzbIwusI8Ls7z-102" style="shape=tableRow;horizontal=0;startSize=0;swimlaneHead=0;swimlaneBody=0;fillColor=none;collapsible=0;dropTarget=0;points=[[0,0.5],[1,0.5]];portConstraint=eastwest;top=0;left=0;right=0;bottom=1;" parent="4lzAWRlnzbIwusI8Ls7z-27" vertex="1">
          <mxGeometry y="60" width="180" height="30" as="geometry" />
        </mxCell>
        <mxCell id="4lzAWRlnzbIwusI8Ls7z-103" value="PK" style="shape=partialRectangle;connectable=0;fillColor=none;top=0;left=0;bottom=0;right=0;fontStyle=1;overflow=hidden;whiteSpace=wrap;html=1;" parent="4lzAWRlnzbIwusI8Ls7z-102" vertex="1">
          <mxGeometry width="30" height="30" as="geometry">
            <mxRectangle width="30" height="30" as="alternateBounds" />
          </mxGeometry>
        </mxCell>
        <mxCell id="4lzAWRlnzbIwusI8Ls7z-104" value="NomeMarca" style="shape=partialRectangle;connectable=0;fillColor=none;top=0;left=0;bottom=0;right=0;align=left;spacingLeft=6;fontStyle=5;overflow=hidden;whiteSpace=wrap;html=1;" parent="4lzAWRlnzbIwusI8Ls7z-102" vertex="1">
          <mxGeometry x="30" width="150" height="30" as="geometry">
            <mxRectangle width="150" height="30" as="alternateBounds" />
          </mxGeometry>
        </mxCell>
        <mxCell id="wBh2vxfzaEwKWpKhTsX6-7" style="shape=tableRow;horizontal=0;startSize=0;swimlaneHead=0;swimlaneBody=0;fillColor=none;collapsible=0;dropTarget=0;points=[[0,0.5],[1,0.5]];portConstraint=eastwest;top=0;left=0;right=0;bottom=1;" parent="4lzAWRlnzbIwusI8Ls7z-27" vertex="1">
          <mxGeometry y="90" width="180" height="30" as="geometry" />
        </mxCell>
        <mxCell id="wBh2vxfzaEwKWpKhTsX6-8" value="PK" style="shape=partialRectangle;connectable=0;fillColor=none;top=0;left=0;bottom=0;right=0;fontStyle=1;overflow=hidden;whiteSpace=wrap;html=1;" parent="wBh2vxfzaEwKWpKhTsX6-7" vertex="1">
          <mxGeometry width="30" height="30" as="geometry">
            <mxRectangle width="30" height="30" as="alternateBounds" />
          </mxGeometry>
        </mxCell>
        <mxCell id="wBh2vxfzaEwKWpKhTsX6-9" value="IdMarca" style="shape=partialRectangle;connectable=0;fillColor=none;top=0;left=0;bottom=0;right=0;align=left;spacingLeft=6;fontStyle=5;overflow=hidden;whiteSpace=wrap;html=1;" parent="wBh2vxfzaEwKWpKhTsX6-7" vertex="1">
          <mxGeometry x="30" width="150" height="30" as="geometry">
            <mxRectangle width="150" height="30" as="alternateBounds" />
          </mxGeometry>
        </mxCell>
        <mxCell id="4lzAWRlnzbIwusI8Ls7z-40" value="Modelo" style="shape=table;startSize=30;container=1;collapsible=1;childLayout=tableLayout;fixedRows=1;rowLines=0;fontStyle=1;align=center;resizeLast=1;html=1;" parent="1" vertex="1">
          <mxGeometry x="-530" y="1470" width="180" height="120" as="geometry" />
        </mxCell>
        <mxCell id="4lzAWRlnzbIwusI8Ls7z-41" value="" style="shape=tableRow;horizontal=0;startSize=0;swimlaneHead=0;swimlaneBody=0;fillColor=none;collapsible=0;dropTarget=0;points=[[0,0.5],[1,0.5]];portConstraint=eastwest;top=0;left=0;right=0;bottom=1;" parent="4lzAWRlnzbIwusI8Ls7z-40" vertex="1">
          <mxGeometry y="30" width="180" height="30" as="geometry" />
        </mxCell>
        <mxCell id="4lzAWRlnzbIwusI8Ls7z-42" value="FK" style="shape=partialRectangle;connectable=0;fillColor=none;top=0;left=0;bottom=0;right=0;fontStyle=1;overflow=hidden;whiteSpace=wrap;html=1;" parent="4lzAWRlnzbIwusI8Ls7z-41" vertex="1">
          <mxGeometry width="30" height="30" as="geometry">
            <mxRectangle width="30" height="30" as="alternateBounds" />
          </mxGeometry>
        </mxCell>
        <mxCell id="4lzAWRlnzbIwusI8Ls7z-43" value="IdVeiculo" style="shape=partialRectangle;connectable=0;fillColor=none;top=0;left=0;bottom=0;right=0;align=left;spacingLeft=6;fontStyle=5;overflow=hidden;whiteSpace=wrap;html=1;" parent="4lzAWRlnzbIwusI8Ls7z-41" vertex="1">
          <mxGeometry x="30" width="150" height="30" as="geometry">
            <mxRectangle width="150" height="30" as="alternateBounds" />
          </mxGeometry>
        </mxCell>
        <mxCell id="4lzAWRlnzbIwusI8Ls7z-96" style="shape=tableRow;horizontal=0;startSize=0;swimlaneHead=0;swimlaneBody=0;fillColor=none;collapsible=0;dropTarget=0;points=[[0,0.5],[1,0.5]];portConstraint=eastwest;top=0;left=0;right=0;bottom=1;" parent="4lzAWRlnzbIwusI8Ls7z-40" vertex="1">
          <mxGeometry y="60" width="180" height="30" as="geometry" />
        </mxCell>
        <mxCell id="4lzAWRlnzbIwusI8Ls7z-97" value="PK" style="shape=partialRectangle;connectable=0;fillColor=none;top=0;left=0;bottom=0;right=0;fontStyle=1;overflow=hidden;whiteSpace=wrap;html=1;" parent="4lzAWRlnzbIwusI8Ls7z-96" vertex="1">
          <mxGeometry width="30" height="30" as="geometry">
            <mxRectangle width="30" height="30" as="alternateBounds" />
          </mxGeometry>
        </mxCell>
        <mxCell id="4lzAWRlnzbIwusI8Ls7z-98" value="NomeModelo" style="shape=partialRectangle;connectable=0;fillColor=none;top=0;left=0;bottom=0;right=0;align=left;spacingLeft=6;fontStyle=5;overflow=hidden;whiteSpace=wrap;html=1;" parent="4lzAWRlnzbIwusI8Ls7z-96" vertex="1">
          <mxGeometry x="30" width="150" height="30" as="geometry">
            <mxRectangle width="150" height="30" as="alternateBounds" />
          </mxGeometry>
        </mxCell>
        <mxCell id="wBh2vxfzaEwKWpKhTsX6-4" style="shape=tableRow;horizontal=0;startSize=0;swimlaneHead=0;swimlaneBody=0;fillColor=none;collapsible=0;dropTarget=0;points=[[0,0.5],[1,0.5]];portConstraint=eastwest;top=0;left=0;right=0;bottom=1;" parent="4lzAWRlnzbIwusI8Ls7z-40" vertex="1">
          <mxGeometry y="90" width="180" height="30" as="geometry" />
        </mxCell>
        <mxCell id="wBh2vxfzaEwKWpKhTsX6-5" value="PK" style="shape=partialRectangle;connectable=0;fillColor=none;top=0;left=0;bottom=0;right=0;fontStyle=1;overflow=hidden;whiteSpace=wrap;html=1;" parent="wBh2vxfzaEwKWpKhTsX6-4" vertex="1">
          <mxGeometry width="30" height="30" as="geometry">
            <mxRectangle width="30" height="30" as="alternateBounds" />
          </mxGeometry>
        </mxCell>
        <mxCell id="wBh2vxfzaEwKWpKhTsX6-6" value="IdModelo" style="shape=partialRectangle;connectable=0;fillColor=none;top=0;left=0;bottom=0;right=0;align=left;spacingLeft=6;fontStyle=5;overflow=hidden;whiteSpace=wrap;html=1;" parent="wBh2vxfzaEwKWpKhTsX6-4" vertex="1">
          <mxGeometry x="30" width="150" height="30" as="geometry">
            <mxRectangle width="150" height="30" as="alternateBounds" />
          </mxGeometry>
        </mxCell>
        <mxCell id="4lzAWRlnzbIwusI8Ls7z-56" value="Cliente" style="shape=table;startSize=30;container=1;collapsible=1;childLayout=tableLayout;fixedRows=1;rowLines=0;fontStyle=1;align=center;resizeLast=1;html=1;" parent="1" vertex="1">
          <mxGeometry x="10" y="1530" width="180" height="120" as="geometry" />
        </mxCell>
        <mxCell id="4lzAWRlnzbIwusI8Ls7z-57" value="" style="shape=tableRow;horizontal=0;startSize=0;swimlaneHead=0;swimlaneBody=0;fillColor=none;collapsible=0;dropTarget=0;points=[[0,0.5],[1,0.5]];portConstraint=eastwest;top=0;left=0;right=0;bottom=1;" parent="4lzAWRlnzbIwusI8Ls7z-56" vertex="1">
          <mxGeometry y="30" width="180" height="30" as="geometry" />
        </mxCell>
        <mxCell id="4lzAWRlnzbIwusI8Ls7z-58" value="PK" style="shape=partialRectangle;connectable=0;fillColor=none;top=0;left=0;bottom=0;right=0;fontStyle=1;overflow=hidden;whiteSpace=wrap;html=1;" parent="4lzAWRlnzbIwusI8Ls7z-57" vertex="1">
          <mxGeometry width="30" height="30" as="geometry">
            <mxRectangle width="30" height="30" as="alternateBounds" />
          </mxGeometry>
        </mxCell>
        <mxCell id="4lzAWRlnzbIwusI8Ls7z-59" value="IdCliente" style="shape=partialRectangle;connectable=0;fillColor=none;top=0;left=0;bottom=0;right=0;align=left;spacingLeft=6;fontStyle=5;overflow=hidden;whiteSpace=wrap;html=1;" parent="4lzAWRlnzbIwusI8Ls7z-57" vertex="1">
          <mxGeometry x="30" width="150" height="30" as="geometry">
            <mxRectangle width="150" height="30" as="alternateBounds" />
          </mxGeometry>
        </mxCell>
        <mxCell id="4lzAWRlnzbIwusI8Ls7z-60" value="" style="shape=tableRow;horizontal=0;startSize=0;swimlaneHead=0;swimlaneBody=0;fillColor=none;collapsible=0;dropTarget=0;points=[[0,0.5],[1,0.5]];portConstraint=eastwest;top=0;left=0;right=0;bottom=0;" parent="4lzAWRlnzbIwusI8Ls7z-56" vertex="1">
          <mxGeometry y="60" width="180" height="30" as="geometry" />
        </mxCell>
        <mxCell id="4lzAWRlnzbIwusI8Ls7z-61" value="" style="shape=partialRectangle;connectable=0;fillColor=none;top=0;left=0;bottom=0;right=0;editable=1;overflow=hidden;whiteSpace=wrap;html=1;" parent="4lzAWRlnzbIwusI8Ls7z-60" vertex="1">
          <mxGeometry width="30" height="30" as="geometry">
            <mxRectangle width="30" height="30" as="alternateBounds" />
          </mxGeometry>
        </mxCell>
        <mxCell id="4lzAWRlnzbIwusI8Ls7z-62" value="CPF" style="shape=partialRectangle;connectable=0;fillColor=none;top=0;left=0;bottom=0;right=0;align=left;spacingLeft=6;overflow=hidden;whiteSpace=wrap;html=1;" parent="4lzAWRlnzbIwusI8Ls7z-60" vertex="1">
          <mxGeometry x="30" width="150" height="30" as="geometry">
            <mxRectangle width="150" height="30" as="alternateBounds" />
          </mxGeometry>
        </mxCell>
        <mxCell id="4lzAWRlnzbIwusI8Ls7z-63" value="" style="shape=tableRow;horizontal=0;startSize=0;swimlaneHead=0;swimlaneBody=0;fillColor=none;collapsible=0;dropTarget=0;points=[[0,0.5],[1,0.5]];portConstraint=eastwest;top=0;left=0;right=0;bottom=0;" parent="4lzAWRlnzbIwusI8Ls7z-56" vertex="1">
          <mxGeometry y="90" width="180" height="30" as="geometry" />
        </mxCell>
        <mxCell id="4lzAWRlnzbIwusI8Ls7z-64" value="" style="shape=partialRectangle;connectable=0;fillColor=none;top=0;left=0;bottom=0;right=0;editable=1;overflow=hidden;whiteSpace=wrap;html=1;" parent="4lzAWRlnzbIwusI8Ls7z-63" vertex="1">
          <mxGeometry width="30" height="30" as="geometry">
            <mxRectangle width="30" height="30" as="alternateBounds" />
          </mxGeometry>
        </mxCell>
        <mxCell id="4lzAWRlnzbIwusI8Ls7z-65" value="Nome" style="shape=partialRectangle;connectable=0;fillColor=none;top=0;left=0;bottom=0;right=0;align=left;spacingLeft=6;overflow=hidden;whiteSpace=wrap;html=1;" parent="4lzAWRlnzbIwusI8Ls7z-63" vertex="1">
          <mxGeometry x="30" width="150" height="30" as="geometry">
            <mxRectangle width="150" height="30" as="alternateBounds" />
          </mxGeometry>
        </mxCell>
        <mxCell id="LaxuI0KeQgYlkoiMioCD-14" value="" style="edgeStyle=entityRelationEdgeStyle;fontSize=12;html=1;endArrow=ERoneToMany;rounded=0;entryX=0;entryY=0.5;entryDx=0;entryDy=0;exitX=1;exitY=0.5;exitDx=0;exitDy=0;" edge="1" parent="1" source="wBh2vxfzaEwKWpKhTsX6-1" target="wBh2vxfzaEwKWpKhTsX6-22">
          <mxGeometry width="100" height="100" relative="1" as="geometry">
            <mxPoint x="30" y="1290" as="sourcePoint" />
            <mxPoint x="130" y="1190" as="targetPoint" />
          </mxGeometry>
        </mxCell>
        <mxCell id="LaxuI0KeQgYlkoiMioCD-15" value="" style="edgeStyle=entityRelationEdgeStyle;fontSize=12;html=1;endArrow=ERoneToMany;rounded=0;entryX=0;entryY=0.5;entryDx=0;entryDy=0;exitX=1;exitY=0.5;exitDx=0;exitDy=0;" edge="1" parent="1" source="4lzAWRlnzbIwusI8Ls7z-2" target="wBh2vxfzaEwKWpKhTsX6-34">
          <mxGeometry width="100" height="100" relative="1" as="geometry">
            <mxPoint x="150" y="1285" as="sourcePoint" />
            <mxPoint x="280" y="1125" as="targetPoint" />
          </mxGeometry>
        </mxCell>
        <mxCell id="LaxuI0KeQgYlkoiMioCD-16" value="" style="edgeStyle=entityRelationEdgeStyle;fontSize=12;html=1;endArrow=ERoneToMany;rounded=0;entryX=0;entryY=0.5;entryDx=0;entryDy=0;exitX=1;exitY=0.5;exitDx=0;exitDy=0;" edge="1" parent="1" source="4lzAWRlnzbIwusI8Ls7z-57" target="wBh2vxfzaEwKWpKhTsX6-34">
          <mxGeometry width="100" height="100" relative="1" as="geometry">
            <mxPoint x="150" y="1225" as="sourcePoint" />
            <mxPoint x="425" y="1310" as="targetPoint" />
          </mxGeometry>
        </mxCell>
        <mxCell id="LaxuI0KeQgYlkoiMioCD-17" value="" style="edgeStyle=entityRelationEdgeStyle;fontSize=12;html=1;endArrow=ERoneToMany;rounded=0;exitX=1;exitY=0.5;exitDx=0;exitDy=0;entryX=0;entryY=0.5;entryDx=0;entryDy=0;" edge="1" parent="1" source="wBh2vxfzaEwKWpKhTsX6-4" target="4lzAWRlnzbIwusI8Ls7z-105">
          <mxGeometry width="100" height="100" relative="1" as="geometry">
            <mxPoint x="30" y="1290" as="sourcePoint" />
            <mxPoint x="130" y="1190" as="targetPoint" />
          </mxGeometry>
        </mxCell>
        <mxCell id="LaxuI0KeQgYlkoiMioCD-18" value="" style="edgeStyle=entityRelationEdgeStyle;fontSize=12;html=1;endArrow=ERoneToMany;rounded=0;entryX=0;entryY=0.5;entryDx=0;entryDy=0;exitX=1;exitY=0.5;exitDx=0;exitDy=0;" edge="1" parent="1" source="4lzAWRlnzbIwusI8Ls7z-2" target="4lzAWRlnzbIwusI8Ls7z-53">
          <mxGeometry width="100" height="100" relative="1" as="geometry">
            <mxPoint x="150" y="1285" as="sourcePoint" />
            <mxPoint x="280" y="1125" as="targetPoint" />
          </mxGeometry>
        </mxCell>
        <mxCell id="LaxuI0KeQgYlkoiMioCD-22" value="" style="edgeStyle=entityRelationEdgeStyle;fontSize=12;html=1;endArrow=ERoneToMany;rounded=0;exitX=1;exitY=0.5;exitDx=0;exitDy=0;entryX=0;entryY=0.5;entryDx=0;entryDy=0;" edge="1" parent="1" source="4lzAWRlnzbIwusI8Ls7z-41" target="4lzAWRlnzbIwusI8Ls7z-2">
          <mxGeometry width="100" height="100" relative="1" as="geometry">
            <mxPoint x="-170" y="1395" as="sourcePoint" />
            <mxPoint x="-30" y="1255" as="targetPoint" />
          </mxGeometry>
        </mxCell>
        <mxCell id="LaxuI0KeQgYlkoiMioCD-23" value="" style="edgeStyle=entityRelationEdgeStyle;fontSize=12;html=1;endArrow=ERoneToMany;rounded=0;exitX=1;exitY=0.5;exitDx=0;exitDy=0;entryX=0;entryY=0.5;entryDx=0;entryDy=0;" edge="1" parent="1" source="4lzAWRlnzbIwusI8Ls7z-28" target="4lzAWRlnzbIwusI8Ls7z-2">
          <mxGeometry width="100" height="100" relative="1" as="geometry">
            <mxPoint x="-170" y="1335" as="sourcePoint" />
            <mxPoint x="-30" y="1225" as="targetPoint" />
          </mxGeometry>
        </mxCell>
        <mxCell id="LaxuI0KeQgYlkoiMioCD-26" value="" style="edgeStyle=entityRelationEdgeStyle;fontSize=12;html=1;endArrow=ERmany;rounded=0;" edge="1" parent="1">
          <mxGeometry width="100" height="100" relative="1" as="geometry">
            <mxPoint x="635" y="1140" as="sourcePoint" />
            <mxPoint x="535" y="1240" as="targetPoint" />
          </mxGeometry>
        </mxCell>
      </root>
    </mxGraphModel>
  </diagram>
  <diagram id="Ysw2MSJw9Zsr1O1KOz1v" name="Página-4">
    <mxGraphModel dx="1434" dy="1933" grid="1" gridSize="10" guides="1" tooltips="1" connect="1" arrows="1" fold="1" page="1" pageScale="1" pageWidth="827" pageHeight="1169" math="0" shadow="0">
      <root>
        <mxCell id="0" />
        <mxCell id="1" parent="0" />
        <mxCell id="fnhhcz3N8YPo74ZyA2T1-1" value="Uma clínica veterinária deseja cadastrar os pets que são atendidos em seu local.&#xa;&#xa;&#xa;- a clínica contém um endereço;&#xa;- os pets deverão ter nome, data de nascimento, tipo de pet;&#xa;- os pets deverão ter raça;&#xa;- os pets deverão ter donos;&#xa;- a clínica deseja cadastrar seus veterinários e todo atendimento de pet será feito por um veterinário;&#xa;&#xa;&#xa;DML&#xa;&#xa;&#xa;- cada atendimento deve registrar qual veterinário atendeu, qual pet foi atendido, descrição da consulta e data da consulta&#xa;&#xa;&#xa;DQL&#xa;&#xa;&#xa;- listar todos os veterinários (nome e CRMV) de uma clínica (razão social)&#xa;- listar todas as raças que começam com a letra S&#xa;- listar todos os tipos de pet que terminam com a letra O&#xa;- listar todos os pets mostrando os nomes dos seus donos&#xa;- listar todos os atendimentos mostrando o nome do veterinário que atendeu, o nome, a raça e o tipo do pet que foi atendido, o nome do dono do pet e o nome da clínica onde o pet foi atendido" style="text;whiteSpace=wrap;" parent="1" vertex="1">
          <mxGeometry x="170" y="-540" width="560" height="410" as="geometry" />
        </mxCell>
        <mxCell id="PiU0RrurMWWyct6Nsr__-3" style="edgeStyle=orthogonalEdgeStyle;rounded=0;orthogonalLoop=1;jettySize=auto;html=1;endArrow=none;endFill=0;" parent="1" source="TIU1JSToARHGYSHNYDtb-6" edge="1">
          <mxGeometry relative="1" as="geometry">
            <mxPoint x="345" y="350" as="targetPoint" />
          </mxGeometry>
        </mxCell>
        <mxCell id="PiU0RrurMWWyct6Nsr__-23" style="edgeStyle=orthogonalEdgeStyle;rounded=0;orthogonalLoop=1;jettySize=auto;html=1;entryX=1;entryY=0.5;entryDx=0;entryDy=0;endArrow=none;endFill=0;" parent="1" source="aVV299f8NVKqfm0d9qol-1" target="PiU0RrurMWWyct6Nsr__-22" edge="1">
          <mxGeometry relative="1" as="geometry" />
        </mxCell>
        <mxCell id="TIU1JSToARHGYSHNYDtb-6" value="Clínica" style="rounded=1;whiteSpace=wrap;html=1;" parent="1" vertex="1">
          <mxGeometry x="290" y="150" width="110" height="50" as="geometry" />
        </mxCell>
        <mxCell id="PiU0RrurMWWyct6Nsr__-10" style="edgeStyle=orthogonalEdgeStyle;rounded=0;orthogonalLoop=1;jettySize=auto;html=1;entryX=0.5;entryY=0;entryDx=0;entryDy=0;endArrow=none;endFill=0;" parent="1" source="PiU0RrurMWWyct6Nsr__-9" target="TIU1JSToARHGYSHNYDtb-8" edge="1">
          <mxGeometry relative="1" as="geometry" />
        </mxCell>
        <mxCell id="PiU0RrurMWWyct6Nsr__-12" style="edgeStyle=orthogonalEdgeStyle;rounded=0;orthogonalLoop=1;jettySize=auto;html=1;endArrow=none;endFill=0;" parent="1" source="TIU1JSToARHGYSHNYDtb-7" target="PiU0RrurMWWyct6Nsr__-8" edge="1">
          <mxGeometry relative="1" as="geometry" />
        </mxCell>
        <mxCell id="PiU0RrurMWWyct6Nsr__-14" style="edgeStyle=orthogonalEdgeStyle;rounded=0;orthogonalLoop=1;jettySize=auto;html=1;endArrow=none;endFill=0;" parent="1" source="TIU1JSToARHGYSHNYDtb-7" target="PiU0RrurMWWyct6Nsr__-7" edge="1">
          <mxGeometry relative="1" as="geometry" />
        </mxCell>
        <mxCell id="TIU1JSToARHGYSHNYDtb-7" value="Pet" style="rounded=1;whiteSpace=wrap;html=1;" parent="1" vertex="1">
          <mxGeometry x="290" y="350" width="110" height="50" as="geometry" />
        </mxCell>
        <mxCell id="TIU1JSToARHGYSHNYDtb-8" value="Tipo de pet" style="rounded=1;whiteSpace=wrap;html=1;" parent="1" vertex="1">
          <mxGeometry x="290" y="560" width="110" height="50" as="geometry" />
        </mxCell>
        <mxCell id="TIU1JSToARHGYSHNYDtb-9" value="Raça" style="rounded=1;whiteSpace=wrap;html=1;" parent="1" vertex="1">
          <mxGeometry x="585" y="350" width="110" height="50" as="geometry" />
        </mxCell>
        <mxCell id="TIU1JSToARHGYSHNYDtb-10" value="Dono" style="rounded=1;whiteSpace=wrap;html=1;" parent="1" vertex="1">
          <mxGeometry x="20" y="350" width="110" height="50" as="geometry" />
        </mxCell>
        <mxCell id="TIU1JSToARHGYSHNYDtb-11" value="Tipo de pet" style="rounded=1;whiteSpace=wrap;html=1;" parent="1" vertex="1">
          <mxGeometry x="625" y="130" width="110" height="50" as="geometry" />
        </mxCell>
        <mxCell id="PiU0RrurMWWyct6Nsr__-5" value="Possui" style="rhombus;whiteSpace=wrap;html=1;" parent="1" vertex="1">
          <mxGeometry x="307.5" y="230" width="75" height="70" as="geometry" />
        </mxCell>
        <mxCell id="PiU0RrurMWWyct6Nsr__-6" value="Possui" style="rhombus;whiteSpace=wrap;html=1;" parent="1" vertex="1">
          <mxGeometry x="660" y="270" width="75" height="70" as="geometry" />
        </mxCell>
        <mxCell id="PiU0RrurMWWyct6Nsr__-15" style="edgeStyle=orthogonalEdgeStyle;rounded=0;orthogonalLoop=1;jettySize=auto;html=1;endArrow=none;endFill=0;" parent="1" source="PiU0RrurMWWyct6Nsr__-7" target="TIU1JSToARHGYSHNYDtb-10" edge="1">
          <mxGeometry relative="1" as="geometry" />
        </mxCell>
        <mxCell id="PiU0RrurMWWyct6Nsr__-7" value="Possui" style="rhombus;whiteSpace=wrap;html=1;" parent="1" vertex="1">
          <mxGeometry x="170" y="340" width="75" height="70" as="geometry" />
        </mxCell>
        <mxCell id="PiU0RrurMWWyct6Nsr__-13" style="edgeStyle=orthogonalEdgeStyle;rounded=0;orthogonalLoop=1;jettySize=auto;html=1;entryX=0;entryY=0.5;entryDx=0;entryDy=0;endArrow=none;endFill=0;" parent="1" source="PiU0RrurMWWyct6Nsr__-8" target="TIU1JSToARHGYSHNYDtb-9" edge="1">
          <mxGeometry relative="1" as="geometry" />
        </mxCell>
        <mxCell id="PiU0RrurMWWyct6Nsr__-8" value="Possui" style="rhombus;whiteSpace=wrap;html=1;" parent="1" vertex="1">
          <mxGeometry x="455" y="340" width="75" height="70" as="geometry" />
        </mxCell>
        <mxCell id="PiU0RrurMWWyct6Nsr__-11" value="" style="edgeStyle=orthogonalEdgeStyle;rounded=0;orthogonalLoop=1;jettySize=auto;html=1;entryX=0.5;entryY=0;entryDx=0;entryDy=0;endArrow=none;endFill=0;" parent="1" source="TIU1JSToARHGYSHNYDtb-7" target="PiU0RrurMWWyct6Nsr__-9" edge="1">
          <mxGeometry relative="1" as="geometry">
            <mxPoint x="345" y="400" as="sourcePoint" />
            <mxPoint x="345" y="560" as="targetPoint" />
          </mxGeometry>
        </mxCell>
        <mxCell id="PiU0RrurMWWyct6Nsr__-9" value="Possui" style="rhombus;whiteSpace=wrap;html=1;" parent="1" vertex="1">
          <mxGeometry x="307.5" y="440" width="75" height="70" as="geometry" />
        </mxCell>
        <mxCell id="PiU0RrurMWWyct6Nsr__-20" value="" style="curved=1;endArrow=none;html=1;rounded=0;edgeStyle=orthogonalEdgeStyle;endFill=0;exitX=1;exitY=0.5;exitDx=0;exitDy=0;" parent="1" source="TIU1JSToARHGYSHNYDtb-7" target="PiU0RrurMWWyct6Nsr__-4" edge="1">
          <mxGeometry width="50" height="50" relative="1" as="geometry">
            <mxPoint x="400" y="350" as="sourcePoint" />
            <mxPoint x="570" y="200" as="targetPoint" />
          </mxGeometry>
        </mxCell>
        <mxCell id="PiU0RrurMWWyct6Nsr__-4" value="Possui" style="rhombus;whiteSpace=wrap;html=1;" parent="1" vertex="1">
          <mxGeometry x="445" y="220" width="75" height="70" as="geometry" />
        </mxCell>
        <mxCell id="PiU0RrurMWWyct6Nsr__-21" value="" style="curved=1;endArrow=none;html=1;rounded=0;entryX=0;entryY=0.5;entryDx=0;entryDy=0;exitX=0.5;exitY=0;exitDx=0;exitDy=0;edgeStyle=orthogonalEdgeStyle;endFill=0;" parent="1" source="PiU0RrurMWWyct6Nsr__-4" target="TIU1JSToARHGYSHNYDtb-11" edge="1">
          <mxGeometry width="50" height="50" relative="1" as="geometry">
            <mxPoint x="500" y="250" as="sourcePoint" />
            <mxPoint x="550" y="200" as="targetPoint" />
          </mxGeometry>
        </mxCell>
        <mxCell id="PiU0RrurMWWyct6Nsr__-26" style="edgeStyle=orthogonalEdgeStyle;rounded=0;orthogonalLoop=1;jettySize=auto;html=1;entryX=0.5;entryY=1;entryDx=0;entryDy=0;endArrow=none;endFill=0;" parent="1" source="PiU0RrurMWWyct6Nsr__-22" target="PiU0RrurMWWyct6Nsr__-25" edge="1">
          <mxGeometry relative="1" as="geometry" />
        </mxCell>
        <mxCell id="PiU0RrurMWWyct6Nsr__-22" value="Veterinário" style="rounded=1;whiteSpace=wrap;html=1;" parent="1" vertex="1">
          <mxGeometry x="20" y="150" width="110" height="50" as="geometry" />
        </mxCell>
        <mxCell id="PiU0RrurMWWyct6Nsr__-24" value="" style="edgeStyle=orthogonalEdgeStyle;rounded=0;orthogonalLoop=1;jettySize=auto;html=1;entryX=1;entryY=0.5;entryDx=0;entryDy=0;endArrow=none;endFill=0;" parent="1" source="TIU1JSToARHGYSHNYDtb-6" target="aVV299f8NVKqfm0d9qol-1" edge="1">
          <mxGeometry relative="1" as="geometry">
            <mxPoint x="290" y="175" as="sourcePoint" />
            <mxPoint x="150" y="175" as="targetPoint" />
          </mxGeometry>
        </mxCell>
        <mxCell id="aVV299f8NVKqfm0d9qol-1" value="Possui" style="rhombus;whiteSpace=wrap;html=1;" parent="1" vertex="1">
          <mxGeometry x="170" y="140" width="75" height="70" as="geometry" />
        </mxCell>
        <mxCell id="PiU0RrurMWWyct6Nsr__-25" value="Atendimento" style="rounded=1;whiteSpace=wrap;html=1;" parent="1" vertex="1">
          <mxGeometry x="20" y="-10" width="110" height="50" as="geometry" />
        </mxCell>
        <mxCell id="PiU0RrurMWWyct6Nsr__-27" value="N" style="text;html=1;align=center;verticalAlign=middle;resizable=0;points=[];autosize=1;strokeColor=none;fillColor=none;" parent="1" vertex="1">
          <mxGeometry x="135" y="148" width="30" height="30" as="geometry" />
        </mxCell>
        <mxCell id="PiU0RrurMWWyct6Nsr__-28" value="1" style="text;html=1;align=center;verticalAlign=middle;resizable=0;points=[];autosize=1;strokeColor=none;fillColor=none;" parent="1" vertex="1">
          <mxGeometry x="265" y="148" width="30" height="30" as="geometry" />
        </mxCell>
        <mxCell id="PiU0RrurMWWyct6Nsr__-29" value="N" style="text;html=1;align=center;verticalAlign=middle;resizable=0;points=[];autosize=1;strokeColor=none;fillColor=none;" parent="1" vertex="1">
          <mxGeometry x="135" y="10" width="30" height="30" as="geometry" />
        </mxCell>
        <mxCell id="PiU0RrurMWWyct6Nsr__-30" value="N" style="text;html=1;align=center;verticalAlign=middle;resizable=0;points=[];autosize=1;strokeColor=none;fillColor=none;" parent="1" vertex="1">
          <mxGeometry x="310" y="320" width="30" height="30" as="geometry" />
        </mxCell>
        <mxCell id="PiU0RrurMWWyct6Nsr__-31" value="N" style="text;html=1;align=center;verticalAlign=middle;resizable=0;points=[];autosize=1;strokeColor=none;fillColor=none;" parent="1" vertex="1">
          <mxGeometry x="255" y="348" width="30" height="30" as="geometry" />
        </mxCell>
        <mxCell id="PiU0RrurMWWyct6Nsr__-32" value="1" style="text;html=1;align=center;verticalAlign=middle;resizable=0;points=[];autosize=1;strokeColor=none;fillColor=none;" parent="1" vertex="1">
          <mxGeometry x="135" y="348" width="30" height="30" as="geometry" />
        </mxCell>
        <mxCell id="0VF2IsPH3btIulkXxUzp-4" value="" style="edgeStyle=orthogonalEdgeStyle;rounded=0;orthogonalLoop=1;jettySize=auto;html=1;curved=1;endArrow=none;endFill=0;" parent="1" source="TIU1JSToARHGYSHNYDtb-7" target="0VF2IsPH3btIulkXxUzp-3" edge="1">
          <mxGeometry relative="1" as="geometry">
            <mxPoint x="495" y="565" as="targetPoint" />
            <mxPoint x="400" y="375" as="sourcePoint" />
          </mxGeometry>
        </mxCell>
        <mxCell id="0VF2IsPH3btIulkXxUzp-5" style="edgeStyle=orthogonalEdgeStyle;rounded=0;orthogonalLoop=1;jettySize=auto;html=1;curved=1;entryX=0;entryY=0.5;entryDx=0;entryDy=0;exitX=0.5;exitY=1;exitDx=0;exitDy=0;endArrow=none;endFill=0;" parent="1" source="0VF2IsPH3btIulkXxUzp-3" target="Evki9ODfNorE5VXlWqHC-1" edge="1">
          <mxGeometry relative="1" as="geometry">
            <mxPoint x="580" y="575" as="targetPoint" />
          </mxGeometry>
        </mxCell>
        <mxCell id="0VF2IsPH3btIulkXxUzp-6" style="edgeStyle=orthogonalEdgeStyle;rounded=0;orthogonalLoop=1;jettySize=auto;html=1;entryX=0;entryY=0.5;entryDx=0;entryDy=0;" parent="1" source="0VF2IsPH3btIulkXxUzp-3" target="Evki9ODfNorE5VXlWqHC-2" edge="1">
          <mxGeometry relative="1" as="geometry">
            <mxPoint x="570" y="475" as="targetPoint" />
          </mxGeometry>
        </mxCell>
        <mxCell id="0VF2IsPH3btIulkXxUzp-3" value="Possui" style="rhombus;whiteSpace=wrap;html=1;" parent="1" vertex="1">
          <mxGeometry x="414" y="440" width="75" height="70" as="geometry" />
        </mxCell>
        <mxCell id="Evki9ODfNorE5VXlWqHC-1" value="Nome" style="ellipse;whiteSpace=wrap;html=1;" parent="1" vertex="1">
          <mxGeometry x="590" y="540" width="70" height="45" as="geometry" />
        </mxCell>
        <mxCell id="Evki9ODfNorE5VXlWqHC-2" value="Data de nascimento" style="ellipse;whiteSpace=wrap;html=1;" parent="1" vertex="1">
          <mxGeometry x="605" y="452.5" width="70" height="45" as="geometry" />
        </mxCell>
        <mxCell id="Evki9ODfNorE5VXlWqHC-4" value="N" style="text;html=1;align=center;verticalAlign=middle;resizable=0;points=[];autosize=1;strokeColor=none;fillColor=none;" parent="1" vertex="1">
          <mxGeometry x="555" y="348" width="30" height="30" as="geometry" />
        </mxCell>
        <mxCell id="Evki9ODfNorE5VXlWqHC-5" value="N" style="text;html=1;align=center;verticalAlign=middle;resizable=0;points=[];autosize=1;strokeColor=none;fillColor=none;" parent="1" vertex="1">
          <mxGeometry x="375" y="398" width="30" height="30" as="geometry" />
        </mxCell>
        <mxCell id="Evki9ODfNorE5VXlWqHC-6" value="1" style="text;html=1;align=center;verticalAlign=middle;resizable=0;points=[];autosize=1;strokeColor=none;fillColor=none;" parent="1" vertex="1">
          <mxGeometry x="360" y="530" width="30" height="30" as="geometry" />
        </mxCell>
      </root>
    </mxGraphModel>
  </diagram>
  <diagram id="XEHyF4ngRh0AG3LZYncm" name="Página-5">
    <mxGraphModel dx="1235" dy="1807" grid="1" gridSize="10" guides="1" tooltips="1" connect="1" arrows="1" fold="1" page="1" pageScale="1" pageWidth="827" pageHeight="1169" math="0" shadow="0">
      <root>
        <mxCell id="0" />
        <mxCell id="1" parent="0" />
        <mxCell id="jVbEstHEKOdqzlQ389W0-1" value="A Optus é uma empresa no ramo musical que deseja realizar o gerenciamento dos lançamentos de novos cds de seus artistas. Cada álbum lançado poderá conter mais de um estilo vinculado (ex.: Indie e Folk).&#xa;É importante que você crie também uma estratégia para que os usuários possuam acesso à plataforma.&#xa;Os usuários deverão conter nome, email, senha e o tipo de permissão (eles podem ser do tipo administrador ou comum).&#xa;&#xa;&#xa;Observações:&#xa;Os Artistas deverão possuir somente nome.&#xa;Estilos: nome.&#xa;Albuns: titulo, data de lançamento, localizacao, quantidade de minutos, se o álbum está ativo para visualização, a quem pertence (somente um artista por álbum) e quais os estilos vinculados.&#xa;&#xa;&#xa;DQL&#xa;&#xa;&#xa;- listar todos os usuários administradores, sem exibir suas senhas&#xa;- listar todos os álbuns lançados após o um determinado ano de lançamento&#xa;- listar os dados de um usuário através do e-mail e senha&#xa;- listar todos os álbuns ativos, mostrando o nome do artista e os estilos do álbum" style="text;whiteSpace=wrap;" parent="1" vertex="1">
          <mxGeometry x="110" y="-110" width="560" height="350" as="geometry" />
        </mxCell>
        <mxCell id="nZL_lWXnxRSNlMBa_Bo3-13" style="edgeStyle=orthogonalEdgeStyle;rounded=0;orthogonalLoop=1;jettySize=auto;html=1;entryX=0.5;entryY=0;entryDx=0;entryDy=0;endArrow=none;endFill=0;" parent="1" source="Fl0w-R9nMsweetW8QBqV-1" target="nZL_lWXnxRSNlMBa_Bo3-9" edge="1">
          <mxGeometry relative="1" as="geometry" />
        </mxCell>
        <mxCell id="Fl0w-R9nMsweetW8QBqV-1" value="Empresa" style="rounded=1;whiteSpace=wrap;html=1;" parent="1" vertex="1">
          <mxGeometry x="284" y="460" width="110" height="50" as="geometry" />
        </mxCell>
        <mxCell id="u2YRv6_Y_kJ9q6rHEyu2-1" value="Nome" style="ellipse;whiteSpace=wrap;html=1;" parent="1" vertex="1">
          <mxGeometry x="414" y="452.5" width="70" height="45" as="geometry" />
        </mxCell>
        <mxCell id="nZL_lWXnxRSNlMBa_Bo3-11" style="edgeStyle=orthogonalEdgeStyle;rounded=0;orthogonalLoop=1;jettySize=auto;html=1;entryX=0.5;entryY=0;entryDx=0;entryDy=0;endArrow=none;endFill=0;" parent="1" source="nZL_lWXnxRSNlMBa_Bo3-1" target="nZL_lWXnxRSNlMBa_Bo3-10" edge="1">
          <mxGeometry relative="1" as="geometry" />
        </mxCell>
        <mxCell id="nZL_lWXnxRSNlMBa_Bo3-1" value="Gerencia" style="rhombus;whiteSpace=wrap;html=1;" parent="1" vertex="1">
          <mxGeometry x="301.5" y="770" width="75" height="70" as="geometry" />
        </mxCell>
        <mxCell id="nZL_lWXnxRSNlMBa_Bo3-12" style="edgeStyle=orthogonalEdgeStyle;rounded=0;orthogonalLoop=1;jettySize=auto;html=1;endArrow=none;endFill=0;" parent="1" source="nZL_lWXnxRSNlMBa_Bo3-3" target="nZL_lWXnxRSNlMBa_Bo3-1" edge="1">
          <mxGeometry relative="1" as="geometry" />
        </mxCell>
        <mxCell id="SDfeirhdva7nqzFJG1fz-45" style="edgeStyle=orthogonalEdgeStyle;rounded=0;orthogonalLoop=1;jettySize=auto;html=1;endArrow=none;endFill=0;" edge="1" parent="1" source="nZL_lWXnxRSNlMBa_Bo3-3" target="SDfeirhdva7nqzFJG1fz-11">
          <mxGeometry relative="1" as="geometry" />
        </mxCell>
        <mxCell id="nZL_lWXnxRSNlMBa_Bo3-3" value="Plataforma" style="rounded=1;whiteSpace=wrap;html=1;" parent="1" vertex="1">
          <mxGeometry x="284" y="670" width="110" height="50" as="geometry" />
        </mxCell>
        <mxCell id="nZL_lWXnxRSNlMBa_Bo3-6" value="1" style="text;html=1;align=center;verticalAlign=middle;resizable=0;points=[];autosize=1;strokeColor=none;fillColor=none;" parent="1" vertex="1">
          <mxGeometry x="340" y="640" width="30" height="30" as="geometry" />
        </mxCell>
        <mxCell id="nZL_lWXnxRSNlMBa_Bo3-7" value="1" style="text;html=1;align=center;verticalAlign=middle;resizable=0;points=[];autosize=1;strokeColor=none;fillColor=none;" parent="1" vertex="1">
          <mxGeometry x="340" y="500" width="30" height="30" as="geometry" />
        </mxCell>
        <mxCell id="nZL_lWXnxRSNlMBa_Bo3-14" style="edgeStyle=orthogonalEdgeStyle;rounded=0;orthogonalLoop=1;jettySize=auto;html=1;entryX=-0.04;entryY=1.16;entryDx=0;entryDy=0;entryPerimeter=0;endArrow=none;endFill=0;" parent="1" source="nZL_lWXnxRSNlMBa_Bo3-9" target="nZL_lWXnxRSNlMBa_Bo3-6" edge="1">
          <mxGeometry relative="1" as="geometry" />
        </mxCell>
        <mxCell id="nZL_lWXnxRSNlMBa_Bo3-9" value="Possui" style="rhombus;whiteSpace=wrap;html=1;" parent="1" vertex="1">
          <mxGeometry x="301.5" y="560" width="75" height="70" as="geometry" />
        </mxCell>
        <mxCell id="SDfeirhdva7nqzFJG1fz-47" style="edgeStyle=orthogonalEdgeStyle;rounded=0;orthogonalLoop=1;jettySize=auto;html=1;endArrow=none;endFill=0;" edge="1" parent="1" source="nZL_lWXnxRSNlMBa_Bo3-10" target="MvRzyS3_p8Sesh1ouLi4-1">
          <mxGeometry relative="1" as="geometry" />
        </mxCell>
        <mxCell id="nZL_lWXnxRSNlMBa_Bo3-10" value="Albuns" style="rounded=1;whiteSpace=wrap;html=1;" parent="1" vertex="1">
          <mxGeometry x="284" y="880" width="110" height="50" as="geometry" />
        </mxCell>
        <mxCell id="yi08meLXkHbwuSks6BP_-13" style="edgeStyle=orthogonalEdgeStyle;rounded=0;orthogonalLoop=1;jettySize=auto;html=1;entryX=0.5;entryY=0;entryDx=0;entryDy=0;endArrow=none;endFill=0;" parent="1" source="nZL_lWXnxRSNlMBa_Bo3-15" target="SDfeirhdva7nqzFJG1fz-11" edge="1">
          <mxGeometry relative="1" as="geometry">
            <mxPoint x="591.5" y="660" as="targetPoint" />
          </mxGeometry>
        </mxCell>
        <mxCell id="nZL_lWXnxRSNlMBa_Bo3-15" value="Usuário" style="rounded=1;whiteSpace=wrap;html=1;" parent="1" vertex="1">
          <mxGeometry x="536.5" y="550" width="110" height="50" as="geometry" />
        </mxCell>
        <mxCell id="nZL_lWXnxRSNlMBa_Bo3-19" value="1" style="text;html=1;align=center;verticalAlign=middle;resizable=0;points=[];autosize=1;strokeColor=none;fillColor=none;" parent="1" vertex="1">
          <mxGeometry x="346.5" y="930" width="30" height="30" as="geometry" />
        </mxCell>
        <mxCell id="nZL_lWXnxRSNlMBa_Bo3-20" value="Email" style="ellipse;whiteSpace=wrap;html=1;" parent="1" vertex="1">
          <mxGeometry x="704" y="445" width="70" height="45" as="geometry" />
        </mxCell>
        <mxCell id="ZR7N-N7q1BBoq16bLbj--9" style="edgeStyle=orthogonalEdgeStyle;rounded=0;orthogonalLoop=1;jettySize=auto;html=1;entryX=0.5;entryY=0;entryDx=0;entryDy=0;endArrow=none;endFill=0;" parent="1" source="SDfeirhdva7nqzFJG1fz-22" target="nZL_lWXnxRSNlMBa_Bo3-15" edge="1">
          <mxGeometry relative="1" as="geometry" />
        </mxCell>
        <mxCell id="nZL_lWXnxRSNlMBa_Bo3-21" value="Senha" style="ellipse;whiteSpace=wrap;html=1;" parent="1" vertex="1">
          <mxGeometry x="624" y="320" width="70" height="45" as="geometry" />
        </mxCell>
        <mxCell id="nZL_lWXnxRSNlMBa_Bo3-29" value="Email" style="ellipse;whiteSpace=wrap;html=1;" parent="1" vertex="1">
          <mxGeometry x="684" y="795" width="70" height="45" as="geometry" />
        </mxCell>
        <mxCell id="yi08meLXkHbwuSks6BP_-17" value="n" style="text;html=1;align=center;verticalAlign=middle;resizable=0;points=[];autosize=1;strokeColor=none;fillColor=none;" parent="1" vertex="1">
          <mxGeometry x="346.5" y="852.5" width="30" height="30" as="geometry" />
        </mxCell>
        <mxCell id="yi08meLXkHbwuSks6BP_-18" value="Tipo de permissão" style="ellipse;whiteSpace=wrap;html=1;" parent="1" vertex="1">
          <mxGeometry x="494" y="320" width="70" height="45" as="geometry" />
        </mxCell>
        <mxCell id="MvRzyS3_p8Sesh1ouLi4-1" value="Estilo" style="rounded=1;whiteSpace=wrap;html=1;" vertex="1" parent="1">
          <mxGeometry x="284" y="1005" width="110" height="50" as="geometry" />
        </mxCell>
        <mxCell id="MvRzyS3_p8Sesh1ouLi4-2" value="n" style="text;html=1;align=center;verticalAlign=middle;resizable=0;points=[];autosize=1;strokeColor=none;fillColor=none;" vertex="1" parent="1">
          <mxGeometry x="346.5" y="980" width="30" height="30" as="geometry" />
        </mxCell>
        <mxCell id="MvRzyS3_p8Sesh1ouLi4-3" value="1" style="text;html=1;align=center;verticalAlign=middle;resizable=0;points=[];autosize=1;strokeColor=none;fillColor=none;" vertex="1" parent="1">
          <mxGeometry x="345" y="718" width="30" height="30" as="geometry" />
        </mxCell>
        <mxCell id="SDfeirhdva7nqzFJG1fz-38" style="edgeStyle=orthogonalEdgeStyle;rounded=0;orthogonalLoop=1;jettySize=auto;html=1;entryX=0.5;entryY=0;entryDx=0;entryDy=0;endArrow=none;endFill=0;" edge="1" parent="1" source="SDfeirhdva7nqzFJG1fz-1" target="SDfeirhdva7nqzFJG1fz-41">
          <mxGeometry relative="1" as="geometry">
            <mxPoint x="554" y="960" as="targetPoint" />
          </mxGeometry>
        </mxCell>
        <mxCell id="SDfeirhdva7nqzFJG1fz-39" style="edgeStyle=orthogonalEdgeStyle;rounded=0;orthogonalLoop=1;jettySize=auto;html=1;entryX=0.5;entryY=0;entryDx=0;entryDy=0;endArrow=none;endFill=0;" edge="1" parent="1" source="SDfeirhdva7nqzFJG1fz-1" target="SDfeirhdva7nqzFJG1fz-40">
          <mxGeometry relative="1" as="geometry">
            <mxPoint x="624" y="960" as="targetPoint" />
          </mxGeometry>
        </mxCell>
        <mxCell id="SDfeirhdva7nqzFJG1fz-1" value="Tipos de permissão" style="rounded=1;whiteSpace=wrap;html=1;" vertex="1" parent="1">
          <mxGeometry x="536.5" y="860" width="110" height="50" as="geometry" />
        </mxCell>
        <mxCell id="SDfeirhdva7nqzFJG1fz-19" style="edgeStyle=orthogonalEdgeStyle;rounded=0;orthogonalLoop=1;jettySize=auto;html=1;" edge="1" parent="1" source="SDfeirhdva7nqzFJG1fz-11">
          <mxGeometry relative="1" as="geometry">
            <mxPoint x="704" y="695" as="targetPoint" />
          </mxGeometry>
        </mxCell>
        <mxCell id="SDfeirhdva7nqzFJG1fz-21" style="edgeStyle=orthogonalEdgeStyle;rounded=0;orthogonalLoop=1;jettySize=auto;html=1;endArrow=none;endFill=0;" edge="1" parent="1" source="SDfeirhdva7nqzFJG1fz-11" target="SDfeirhdva7nqzFJG1fz-1">
          <mxGeometry relative="1" as="geometry" />
        </mxCell>
        <mxCell id="SDfeirhdva7nqzFJG1fz-11" value="Insere" style="rounded=1;whiteSpace=wrap;html=1;" vertex="1" parent="1">
          <mxGeometry x="536.5" y="670" width="110" height="50" as="geometry" />
        </mxCell>
        <mxCell id="SDfeirhdva7nqzFJG1fz-13" value="Senha" style="ellipse;whiteSpace=wrap;html=1;" vertex="1" parent="1">
          <mxGeometry x="694" y="662.5" width="70" height="45" as="geometry" />
        </mxCell>
        <mxCell id="SDfeirhdva7nqzFJG1fz-20" value="" style="edgeStyle=orthogonalEdgeStyle;orthogonalLoop=1;jettySize=auto;html=1;rounded=0;endArrow=none;endFill=0;curved=1;exitX=1;exitY=0.5;exitDx=0;exitDy=0;entryX=0.5;entryY=0;entryDx=0;entryDy=0;" edge="1" parent="1" source="SDfeirhdva7nqzFJG1fz-11" target="nZL_lWXnxRSNlMBa_Bo3-29">
          <mxGeometry width="100" relative="1" as="geometry">
            <mxPoint x="634" y="800" as="sourcePoint" />
            <mxPoint x="714" y="790" as="targetPoint" />
          </mxGeometry>
        </mxCell>
        <mxCell id="SDfeirhdva7nqzFJG1fz-32" style="edgeStyle=orthogonalEdgeStyle;rounded=0;orthogonalLoop=1;jettySize=auto;html=1;endArrow=none;endFill=0;" edge="1" parent="1" source="SDfeirhdva7nqzFJG1fz-22">
          <mxGeometry relative="1" as="geometry">
            <mxPoint x="704" y="475" as="targetPoint" />
          </mxGeometry>
        </mxCell>
        <mxCell id="SDfeirhdva7nqzFJG1fz-33" style="edgeStyle=orthogonalEdgeStyle;rounded=0;orthogonalLoop=1;jettySize=auto;html=1;entryX=0.406;entryY=0.951;entryDx=0;entryDy=0;entryPerimeter=0;endArrow=none;endFill=0;" edge="1" parent="1" source="SDfeirhdva7nqzFJG1fz-22" target="nZL_lWXnxRSNlMBa_Bo3-21">
          <mxGeometry relative="1" as="geometry" />
        </mxCell>
        <mxCell id="SDfeirhdva7nqzFJG1fz-34" value="" style="edgeStyle=orthogonalEdgeStyle;rounded=0;orthogonalLoop=1;jettySize=auto;html=1;endArrow=none;endFill=0;" edge="1" parent="1" source="SDfeirhdva7nqzFJG1fz-22" target="yi08meLXkHbwuSks6BP_-18">
          <mxGeometry relative="1" as="geometry" />
        </mxCell>
        <mxCell id="SDfeirhdva7nqzFJG1fz-35" style="edgeStyle=orthogonalEdgeStyle;rounded=0;orthogonalLoop=1;jettySize=auto;html=1;entryX=1;entryY=0.5;entryDx=0;entryDy=0;endArrow=none;endFill=0;" edge="1" parent="1" source="SDfeirhdva7nqzFJG1fz-22" target="u2YRv6_Y_kJ9q6rHEyu2-1">
          <mxGeometry relative="1" as="geometry">
            <mxPoint x="494" y="475" as="targetPoint" />
          </mxGeometry>
        </mxCell>
        <mxCell id="SDfeirhdva7nqzFJG1fz-22" value="Possui" style="rhombus;whiteSpace=wrap;html=1;" vertex="1" parent="1">
          <mxGeometry x="554" y="440" width="75" height="70" as="geometry" />
        </mxCell>
        <mxCell id="SDfeirhdva7nqzFJG1fz-36" value="n" style="text;html=1;align=center;verticalAlign=middle;resizable=0;points=[];autosize=1;strokeColor=none;fillColor=none;" vertex="1" parent="1">
          <mxGeometry x="599" y="830" width="30" height="30" as="geometry" />
        </mxCell>
        <mxCell id="SDfeirhdva7nqzFJG1fz-37" value="1" style="text;html=1;align=center;verticalAlign=middle;resizable=0;points=[];autosize=1;strokeColor=none;fillColor=none;" vertex="1" parent="1">
          <mxGeometry x="599" y="718" width="30" height="30" as="geometry" />
        </mxCell>
        <mxCell id="SDfeirhdva7nqzFJG1fz-40" value="Comum" style="ellipse;whiteSpace=wrap;html=1;" vertex="1" parent="1">
          <mxGeometry x="614" y="960" width="70" height="45" as="geometry" />
        </mxCell>
        <mxCell id="SDfeirhdva7nqzFJG1fz-41" value="Administrador" style="ellipse;whiteSpace=wrap;html=1;" vertex="1" parent="1">
          <mxGeometry x="504" y="960" width="70" height="45" as="geometry" />
        </mxCell>
        <mxCell id="SDfeirhdva7nqzFJG1fz-48" value="1" style="text;html=1;align=center;verticalAlign=middle;resizable=0;points=[];autosize=1;strokeColor=none;fillColor=none;" vertex="1" parent="1">
          <mxGeometry x="505" y="698" width="30" height="30" as="geometry" />
        </mxCell>
        <mxCell id="SDfeirhdva7nqzFJG1fz-49" value="1" style="text;html=1;align=center;verticalAlign=middle;resizable=0;points=[];autosize=1;strokeColor=none;fillColor=none;" vertex="1" parent="1">
          <mxGeometry x="395" y="698" width="30" height="30" as="geometry" />
        </mxCell>
        <mxCell id="SDfeirhdva7nqzFJG1fz-50" value="n" style="text;html=1;align=center;verticalAlign=middle;resizable=0;points=[];autosize=1;strokeColor=none;fillColor=none;" vertex="1" parent="1">
          <mxGeometry x="625" y="598" width="30" height="30" as="geometry" />
        </mxCell>
        <mxCell id="SDfeirhdva7nqzFJG1fz-51" value="1" style="text;html=1;align=center;verticalAlign=middle;resizable=0;points=[];autosize=1;strokeColor=none;fillColor=none;" vertex="1" parent="1">
          <mxGeometry x="625" y="638" width="30" height="30" as="geometry" />
        </mxCell>
      </root>
    </mxGraphModel>
  </diagram>
  <diagram id="F-zjQrm6kRUSXCjnJbgG" name="Página-6">
    <mxGraphModel dx="1050" dy="542" grid="1" gridSize="10" guides="1" tooltips="1" connect="1" arrows="1" fold="1" page="1" pageScale="1" pageWidth="827" pageHeight="1169" math="0" shadow="0">
      <root>
        <mxCell id="0" />
        <mxCell id="1" parent="0" />
        <mxCell id="F316gW5nh3FGyL1Je7-g-1" value="E-Commerce - SenaiShop&#xa;&#xa;&#xa;Uma Loja possui várias categorias&#xa;Uma categoria possui subcategorias&#xa;Um produto possui uma subcategoria&#xa;Um cliente efetua um pedido&#xa;Um pedido pode ter 1 ou vários produtos&#xa;&#xa;&#xa;DQL&#xa;&#xa;&#xa;- listar todos os pedidos de um cliente (nome), mostrando quais produtos foram solicitados (titulo) neste pedido e de qual subcategoria (nome) e categoria (nome) pertencem" style="text;whiteSpace=wrap;" vertex="1" parent="1">
          <mxGeometry x="220" y="20" width="560" height="240" as="geometry" />
        </mxCell>
        <mxCell id="r4d6oEh5tDn1VAT-qYjl-3" style="edgeStyle=orthogonalEdgeStyle;rounded=0;orthogonalLoop=1;jettySize=auto;html=1;entryX=0;entryY=0.5;entryDx=0;entryDy=0;endArrow=none;endFill=0;" edge="1" parent="1" source="0FgT1oTCUM_b2iEgjmMw-1" target="r4d6oEh5tDn1VAT-qYjl-2">
          <mxGeometry relative="1" as="geometry" />
        </mxCell>
        <mxCell id="0FgT1oTCUM_b2iEgjmMw-1" value="Loja" style="rounded=1;whiteSpace=wrap;html=1;" vertex="1" parent="1">
          <mxGeometry x="322.5" y="300" width="110" height="50" as="geometry" />
        </mxCell>
        <mxCell id="r4d6oEh5tDn1VAT-qYjl-15" style="edgeStyle=orthogonalEdgeStyle;rounded=0;orthogonalLoop=1;jettySize=auto;html=1;endArrow=none;endFill=0;" edge="1" parent="1" source="2_wZaKELzENlwleiwefV-1" target="r4d6oEh5tDn1VAT-qYjl-7">
          <mxGeometry relative="1" as="geometry" />
        </mxCell>
        <mxCell id="2_wZaKELzENlwleiwefV-1" value="Efetua" style="rhombus;whiteSpace=wrap;html=1;" vertex="1" parent="1">
          <mxGeometry x="517.5" y="740" width="75" height="70" as="geometry" />
        </mxCell>
        <mxCell id="r4d6oEh5tDn1VAT-qYjl-4" style="edgeStyle=orthogonalEdgeStyle;rounded=0;orthogonalLoop=1;jettySize=auto;html=1;endArrow=none;endFill=0;" edge="1" parent="1" source="r4d6oEh5tDn1VAT-qYjl-2">
          <mxGeometry relative="1" as="geometry">
            <mxPoint x="555" y="420" as="targetPoint" />
          </mxGeometry>
        </mxCell>
        <mxCell id="r4d6oEh5tDn1VAT-qYjl-2" value="Categorias" style="rounded=1;whiteSpace=wrap;html=1;" vertex="1" parent="1">
          <mxGeometry x="500" y="300" width="110" height="50" as="geometry" />
        </mxCell>
        <mxCell id="r4d6oEh5tDn1VAT-qYjl-10" style="edgeStyle=orthogonalEdgeStyle;rounded=0;orthogonalLoop=1;jettySize=auto;html=1;entryX=0.5;entryY=0;entryDx=0;entryDy=0;endArrow=none;endFill=0;" edge="1" parent="1" source="r4d6oEh5tDn1VAT-qYjl-5" target="r4d6oEh5tDn1VAT-qYjl-6">
          <mxGeometry relative="1" as="geometry" />
        </mxCell>
        <mxCell id="r4d6oEh5tDn1VAT-qYjl-5" value="Subcategorias" style="rounded=1;whiteSpace=wrap;html=1;" vertex="1" parent="1">
          <mxGeometry x="500" y="420" width="110" height="50" as="geometry" />
        </mxCell>
        <mxCell id="r4d6oEh5tDn1VAT-qYjl-12" style="edgeStyle=orthogonalEdgeStyle;rounded=0;orthogonalLoop=1;jettySize=auto;html=1;endArrow=none;endFill=0;" edge="1" parent="1" source="r4d6oEh5tDn1VAT-qYjl-6" target="r4d6oEh5tDn1VAT-qYjl-8">
          <mxGeometry relative="1" as="geometry" />
        </mxCell>
        <mxCell id="r4d6oEh5tDn1VAT-qYjl-6" value="Produto" style="rounded=1;whiteSpace=wrap;html=1;" vertex="1" parent="1">
          <mxGeometry x="500" y="535" width="110" height="50" as="geometry" />
        </mxCell>
        <mxCell id="r4d6oEh5tDn1VAT-qYjl-7" value="Cliente" style="rounded=1;whiteSpace=wrap;html=1;" vertex="1" parent="1">
          <mxGeometry x="500" y="850" width="110" height="50" as="geometry" />
        </mxCell>
        <mxCell id="r4d6oEh5tDn1VAT-qYjl-14" style="edgeStyle=orthogonalEdgeStyle;rounded=0;orthogonalLoop=1;jettySize=auto;html=1;endArrow=none;endFill=0;" edge="1" parent="1" source="r4d6oEh5tDn1VAT-qYjl-8" target="2_wZaKELzENlwleiwefV-1">
          <mxGeometry relative="1" as="geometry" />
        </mxCell>
        <mxCell id="r4d6oEh5tDn1VAT-qYjl-8" value="Pedido" style="rounded=1;whiteSpace=wrap;html=1;" vertex="1" parent="1">
          <mxGeometry x="500" y="660" width="110" height="50" as="geometry" />
        </mxCell>
        <mxCell id="r4d6oEh5tDn1VAT-qYjl-16" value="1" style="text;html=1;align=center;verticalAlign=middle;resizable=0;points=[];autosize=1;strokeColor=none;fillColor=none;" vertex="1" parent="1">
          <mxGeometry x="575" y="468" width="30" height="30" as="geometry" />
        </mxCell>
        <mxCell id="r4d6oEh5tDn1VAT-qYjl-17" value="N" style="text;html=1;align=center;verticalAlign=middle;resizable=0;points=[];autosize=1;strokeColor=none;fillColor=none;" vertex="1" parent="1">
          <mxGeometry x="575" y="505" width="30" height="30" as="geometry" />
        </mxCell>
        <mxCell id="r4d6oEh5tDn1VAT-qYjl-18" value="1" style="text;html=1;align=center;verticalAlign=middle;resizable=0;points=[];autosize=1;strokeColor=none;fillColor=none;" vertex="1" parent="1">
          <mxGeometry x="575" y="350" width="30" height="30" as="geometry" />
        </mxCell>
        <mxCell id="r4d6oEh5tDn1VAT-qYjl-19" value="N" style="text;html=1;align=center;verticalAlign=middle;resizable=0;points=[];autosize=1;strokeColor=none;fillColor=none;" vertex="1" parent="1">
          <mxGeometry x="575" y="398" width="30" height="30" as="geometry" />
        </mxCell>
        <mxCell id="r4d6oEh5tDn1VAT-qYjl-20" value="1" style="text;html=1;align=center;verticalAlign=middle;resizable=0;points=[];autosize=1;strokeColor=none;fillColor=none;" vertex="1" parent="1">
          <mxGeometry x="565" y="638" width="30" height="30" as="geometry" />
        </mxCell>
        <mxCell id="r4d6oEh5tDn1VAT-qYjl-21" value="N" style="text;html=1;align=center;verticalAlign=middle;resizable=0;points=[];autosize=1;strokeColor=none;fillColor=none;" vertex="1" parent="1">
          <mxGeometry x="565" y="578" width="30" height="30" as="geometry" />
        </mxCell>
        <mxCell id="r4d6oEh5tDn1VAT-qYjl-22" value="1" style="text;html=1;align=center;verticalAlign=middle;resizable=0;points=[];autosize=1;strokeColor=none;fillColor=none;" vertex="1" parent="1">
          <mxGeometry x="575" y="708" width="30" height="30" as="geometry" />
        </mxCell>
        <mxCell id="r4d6oEh5tDn1VAT-qYjl-23" value="1" style="text;html=1;align=center;verticalAlign=middle;resizable=0;points=[];autosize=1;strokeColor=none;fillColor=none;" vertex="1" parent="1">
          <mxGeometry x="575" y="818" width="30" height="30" as="geometry" />
        </mxCell>
      </root>
    </mxGraphModel>
  </diagram>
  <diagram id="ir5rSF7xZ3TukcGFQG4X" name="Página-7">
    <mxGraphModel dx="1434" dy="3102" grid="1" gridSize="10" guides="1" tooltips="1" connect="1" arrows="1" fold="1" page="1" pageScale="1" pageWidth="827" pageHeight="1169" math="0" shadow="0">
      <root>
        <mxCell id="0" />
        <mxCell id="1" parent="0" />
        <mxCell id="VNoysWX4WC530dhbayAd-1" value="A empresa MicroManu possui uma grande quantidade de clientes que leva seus equipamentos &#xa;como computadores, celulares, video games e até tvs para que seus colaboradores realizem o conserto.&#xa;E eles querem que você desenvolva a base para armazenar todos os dados de seus clientes e seus respectivos consertos.&#xa;Para isto, desenvolva a modelagem para atender a demanda acima. Levando em conta o exemplo abaixo:&#xa;O cliente A levou seu computador na MicroManu, o Erik e o Claudio realizaram a manutenção deste item.&#xa;O cliente B levou sua tv na MicroManu e o Daniel realizou a limpeza de todas as peças.&#xa;&#xa;&#xa;O cliente pode verificar seus consertos no site da MicroManu.&#xa;O colaborador pode encerrar o conserto.&#xa;&#xa;&#xa;DQL&#xa;&#xa;&#xa;- listar todos os pedidos dos clientes&#xa;- listar todos os pedidos de um determinado cliente, mostrando quais foram os colaboradores que executaram o serviço, qual foi o tipo de conserto, qual item foi consertado e o nome deste cliente" style="text;whiteSpace=wrap;" parent="1" vertex="1">
          <mxGeometry x="170" y="-1660" width="560" height="340" as="geometry" />
        </mxCell>
        <mxCell id="3MvQR75nbaSnbfl-lhdn-12" style="edgeStyle=orthogonalEdgeStyle;rounded=0;orthogonalLoop=1;jettySize=auto;html=1;entryX=0;entryY=0.5;entryDx=0;entryDy=0;endArrow=none;endFill=0;" parent="1" source="W9EdLSB0xVA4du1pJRD7-1" target="kDPQk0gDe34irExcZWXp-4" edge="1">
          <mxGeometry relative="1" as="geometry" />
        </mxCell>
        <mxCell id="W9EdLSB0xVA4du1pJRD7-1" value="Loja" style="rounded=1;whiteSpace=wrap;html=1;" parent="1" vertex="1">
          <mxGeometry x="340" y="-550" width="110" height="50" as="geometry" />
        </mxCell>
        <mxCell id="3MvQR75nbaSnbfl-lhdn-7" style="edgeStyle=orthogonalEdgeStyle;rounded=0;orthogonalLoop=1;jettySize=auto;html=1;endArrow=none;endFill=0;" parent="1" source="kDPQk0gDe34irExcZWXp-2" target="3MvQR75nbaSnbfl-lhdn-6" edge="1">
          <mxGeometry relative="1" as="geometry" />
        </mxCell>
        <mxCell id="-fiJCeLF8HhbmaKcpxi3-25" style="edgeStyle=orthogonalEdgeStyle;rounded=0;orthogonalLoop=1;jettySize=auto;html=1;entryX=1;entryY=0.5;entryDx=0;entryDy=0;endArrow=none;endFill=0;" parent="1" source="kDPQk0gDe34irExcZWXp-2" target="-fiJCeLF8HhbmaKcpxi3-23" edge="1">
          <mxGeometry relative="1" as="geometry" />
        </mxCell>
        <mxCell id="-fiJCeLF8HhbmaKcpxi3-26" style="edgeStyle=orthogonalEdgeStyle;rounded=0;orthogonalLoop=1;jettySize=auto;html=1;entryX=0.5;entryY=1;entryDx=0;entryDy=0;endArrow=none;endFill=0;" parent="1" source="kDPQk0gDe34irExcZWXp-2" target="-fiJCeLF8HhbmaKcpxi3-22" edge="1">
          <mxGeometry relative="1" as="geometry" />
        </mxCell>
        <mxCell id="kDPQk0gDe34irExcZWXp-2" value="Cliente" style="rounded=1;whiteSpace=wrap;html=1;" parent="1" vertex="1">
          <mxGeometry x="340" y="-790" width="110" height="50" as="geometry" />
        </mxCell>
        <mxCell id="3MvQR75nbaSnbfl-lhdn-9" style="edgeStyle=orthogonalEdgeStyle;rounded=0;orthogonalLoop=1;jettySize=auto;html=1;entryX=0.5;entryY=0;entryDx=0;entryDy=0;endArrow=none;endFill=0;exitX=0.5;exitY=1;exitDx=0;exitDy=0;" parent="1" source="3MvQR75nbaSnbfl-lhdn-6" target="W9EdLSB0xVA4du1pJRD7-1" edge="1">
          <mxGeometry relative="1" as="geometry">
            <mxPoint x="395" y="-640" as="sourcePoint" />
          </mxGeometry>
        </mxCell>
        <mxCell id="3MvQR75nbaSnbfl-lhdn-17" style="edgeStyle=orthogonalEdgeStyle;rounded=0;orthogonalLoop=1;jettySize=auto;html=1;endArrow=none;endFill=0;" parent="1" source="kDPQk0gDe34irExcZWXp-4" target="3MvQR75nbaSnbfl-lhdn-15" edge="1">
          <mxGeometry relative="1" as="geometry" />
        </mxCell>
        <mxCell id="kDPQk0gDe34irExcZWXp-4" value="Funcionário" style="rounded=1;whiteSpace=wrap;html=1;" parent="1" vertex="1">
          <mxGeometry x="627.5" y="-550" width="110" height="50" as="geometry" />
        </mxCell>
        <mxCell id="3MvQR75nbaSnbfl-lhdn-5" style="edgeStyle=orthogonalEdgeStyle;rounded=0;orthogonalLoop=1;jettySize=auto;html=1;exitX=0.5;exitY=1;exitDx=0;exitDy=0;" parent="1" edge="1">
          <mxGeometry relative="1" as="geometry">
            <mxPoint x="395" y="-640" as="sourcePoint" />
            <mxPoint x="395" y="-640" as="targetPoint" />
          </mxGeometry>
        </mxCell>
        <mxCell id="3MvQR75nbaSnbfl-lhdn-6" value="Entrega item" style="rhombus;whiteSpace=wrap;html=1;" parent="1" vertex="1">
          <mxGeometry x="357.5" y="-662" width="75" height="70" as="geometry" />
        </mxCell>
        <mxCell id="3MvQR75nbaSnbfl-lhdn-10" value="1" style="text;html=1;align=center;verticalAlign=middle;resizable=0;points=[];autosize=1;strokeColor=none;fillColor=none;" parent="1" vertex="1">
          <mxGeometry x="415" y="-882" width="30" height="30" as="geometry" />
        </mxCell>
        <mxCell id="3MvQR75nbaSnbfl-lhdn-11" value="N" style="text;html=1;align=center;verticalAlign=middle;resizable=0;points=[];autosize=1;strokeColor=none;fillColor=none;" parent="1" vertex="1">
          <mxGeometry x="399" y="-740" width="30" height="30" as="geometry" />
        </mxCell>
        <mxCell id="3MvQR75nbaSnbfl-lhdn-13" value="Solicita" style="rhombus;whiteSpace=wrap;html=1;" parent="1" vertex="1">
          <mxGeometry x="500" y="-560" width="75" height="70" as="geometry" />
        </mxCell>
        <mxCell id="3MvQR75nbaSnbfl-lhdn-18" style="edgeStyle=orthogonalEdgeStyle;rounded=0;orthogonalLoop=1;jettySize=auto;html=1;endArrow=none;endFill=0;entryX=0.5;entryY=1;entryDx=0;entryDy=0;" parent="1" source="3MvQR75nbaSnbfl-lhdn-15" target="-fiJCeLF8HhbmaKcpxi3-6" edge="1">
          <mxGeometry relative="1" as="geometry">
            <mxPoint x="685" y="-750" as="targetPoint" />
          </mxGeometry>
        </mxCell>
        <mxCell id="3MvQR75nbaSnbfl-lhdn-15" value="Realiza" style="rhombus;whiteSpace=wrap;html=1;" parent="1" vertex="1">
          <mxGeometry x="645" y="-690" width="75" height="70" as="geometry" />
        </mxCell>
        <mxCell id="3MvQR75nbaSnbfl-lhdn-21" value="1" style="text;html=1;align=center;verticalAlign=middle;resizable=0;points=[];autosize=1;strokeColor=none;fillColor=none;" parent="1" vertex="1">
          <mxGeometry x="400" y="-580" width="30" height="30" as="geometry" />
        </mxCell>
        <mxCell id="SyJ7Om2JfXdtJfVgV2wG-3" value="1" style="text;html=1;align=center;verticalAlign=middle;resizable=0;points=[];autosize=1;strokeColor=none;fillColor=none;" parent="1" vertex="1">
          <mxGeometry x="450" y="-552" width="30" height="30" as="geometry" />
        </mxCell>
        <mxCell id="SyJ7Om2JfXdtJfVgV2wG-4" value="N" style="text;html=1;align=center;verticalAlign=middle;resizable=0;points=[];autosize=1;strokeColor=none;fillColor=none;" parent="1" vertex="1">
          <mxGeometry x="600" y="-550" width="30" height="30" as="geometry" />
        </mxCell>
        <mxCell id="SyJ7Om2JfXdtJfVgV2wG-14" value="1" style="text;html=1;align=center;verticalAlign=middle;resizable=0;points=[];autosize=1;strokeColor=none;fillColor=none;" parent="1" vertex="1">
          <mxGeometry x="645" y="-572" width="30" height="30" as="geometry" />
        </mxCell>
        <mxCell id="-fiJCeLF8HhbmaKcpxi3-1" value="Site" style="ellipse;whiteSpace=wrap;html=1;" parent="1" vertex="1">
          <mxGeometry x="360" y="-320" width="70" height="45" as="geometry" />
        </mxCell>
        <mxCell id="-fiJCeLF8HhbmaKcpxi3-4" style="edgeStyle=orthogonalEdgeStyle;rounded=0;orthogonalLoop=1;jettySize=auto;html=1;endArrow=none;endFill=0;" parent="1" source="-fiJCeLF8HhbmaKcpxi3-2" target="W9EdLSB0xVA4du1pJRD7-1" edge="1">
          <mxGeometry relative="1" as="geometry" />
        </mxCell>
        <mxCell id="-fiJCeLF8HhbmaKcpxi3-5" style="edgeStyle=orthogonalEdgeStyle;rounded=0;orthogonalLoop=1;jettySize=auto;html=1;endArrow=none;endFill=0;" parent="1" source="-fiJCeLF8HhbmaKcpxi3-2" target="-fiJCeLF8HhbmaKcpxi3-1" edge="1">
          <mxGeometry relative="1" as="geometry" />
        </mxCell>
        <mxCell id="-fiJCeLF8HhbmaKcpxi3-2" value="Possui" style="rhombus;whiteSpace=wrap;html=1;" parent="1" vertex="1">
          <mxGeometry x="357.5" y="-450" width="75" height="70" as="geometry" />
        </mxCell>
        <mxCell id="-fiJCeLF8HhbmaKcpxi3-11" style="edgeStyle=orthogonalEdgeStyle;rounded=0;orthogonalLoop=1;jettySize=auto;html=1;endArrow=none;endFill=0;" parent="1" source="-fiJCeLF8HhbmaKcpxi3-6" target="-fiJCeLF8HhbmaKcpxi3-10" edge="1">
          <mxGeometry relative="1" as="geometry" />
        </mxCell>
        <mxCell id="-fiJCeLF8HhbmaKcpxi3-33" style="edgeStyle=orthogonalEdgeStyle;rounded=0;orthogonalLoop=1;jettySize=auto;html=1;endArrow=none;endFill=0;" parent="1" source="-fiJCeLF8HhbmaKcpxi3-6" target="-fiJCeLF8HhbmaKcpxi3-32" edge="1">
          <mxGeometry relative="1" as="geometry" />
        </mxCell>
        <mxCell id="-fiJCeLF8HhbmaKcpxi3-6" value="Serviços" style="rounded=1;whiteSpace=wrap;html=1;" parent="1" vertex="1">
          <mxGeometry x="627.5" y="-810" width="110" height="50" as="geometry" />
        </mxCell>
        <mxCell id="-fiJCeLF8HhbmaKcpxi3-10" value="Limpeza" style="ellipse;whiteSpace=wrap;html=1;" parent="1" vertex="1">
          <mxGeometry x="710" y="-930" width="70" height="45" as="geometry" />
        </mxCell>
        <mxCell id="-fiJCeLF8HhbmaKcpxi3-13" style="edgeStyle=orthogonalEdgeStyle;rounded=0;orthogonalLoop=1;jettySize=auto;html=1;endArrow=none;endFill=0;" parent="1" source="-fiJCeLF8HhbmaKcpxi3-12" edge="1">
          <mxGeometry relative="1" as="geometry">
            <mxPoint x="615" y="-930" as="targetPoint" />
          </mxGeometry>
        </mxCell>
        <mxCell id="-fiJCeLF8HhbmaKcpxi3-12" value="Colaborador" style="rounded=1;whiteSpace=wrap;html=1;" parent="1" vertex="1">
          <mxGeometry x="560" y="-1169" width="110" height="50" as="geometry" />
        </mxCell>
        <mxCell id="-fiJCeLF8HhbmaKcpxi3-14" value="Encerrar" style="rhombus;whiteSpace=wrap;html=1;" parent="1" vertex="1">
          <mxGeometry x="577.5" y="-1060" width="75" height="70" as="geometry" />
        </mxCell>
        <mxCell id="-fiJCeLF8HhbmaKcpxi3-22" value="TV" style="rounded=1;whiteSpace=wrap;html=1;" parent="1" vertex="1">
          <mxGeometry x="340" y="-902" width="110" height="50" as="geometry" />
        </mxCell>
        <mxCell id="-fiJCeLF8HhbmaKcpxi3-23" value="Computador" style="rounded=1;whiteSpace=wrap;html=1;" parent="1" vertex="1">
          <mxGeometry x="170" y="-790" width="110" height="50" as="geometry" />
        </mxCell>
        <mxCell id="-fiJCeLF8HhbmaKcpxi3-27" value="1" style="text;html=1;align=center;verticalAlign=middle;resizable=0;points=[];autosize=1;strokeColor=none;fillColor=none;" parent="1" vertex="1">
          <mxGeometry x="315" y="-762" width="30" height="30" as="geometry" />
        </mxCell>
        <mxCell id="-fiJCeLF8HhbmaKcpxi3-28" value="N" style="text;html=1;align=center;verticalAlign=middle;resizable=0;points=[];autosize=1;strokeColor=none;fillColor=none;" parent="1" vertex="1">
          <mxGeometry x="275" y="-762" width="30" height="30" as="geometry" />
        </mxCell>
        <mxCell id="-fiJCeLF8HhbmaKcpxi3-29" value="N" style="text;html=1;align=center;verticalAlign=middle;resizable=0;points=[];autosize=1;strokeColor=none;fillColor=none;" parent="1" vertex="1">
          <mxGeometry x="405" y="-852" width="30" height="30" as="geometry" />
        </mxCell>
        <mxCell id="-fiJCeLF8HhbmaKcpxi3-30" value="1" style="text;html=1;align=center;verticalAlign=middle;resizable=0;points=[];autosize=1;strokeColor=none;fillColor=none;" parent="1" vertex="1">
          <mxGeometry x="405" y="-820" width="30" height="30" as="geometry" />
        </mxCell>
        <mxCell id="-fiJCeLF8HhbmaKcpxi3-31" value="N" style="text;html=1;align=center;verticalAlign=middle;resizable=0;points=[];autosize=1;strokeColor=none;fillColor=none;" parent="1" vertex="1">
          <mxGeometry x="645" y="-762" width="30" height="30" as="geometry" />
        </mxCell>
        <mxCell id="-fiJCeLF8HhbmaKcpxi3-32" value="Conserto" style="rounded=1;whiteSpace=wrap;html=1;" parent="1" vertex="1">
          <mxGeometry x="560" y="-935" width="110" height="50" as="geometry" />
        </mxCell>
        <mxCell id="-fiJCeLF8HhbmaKcpxi3-34" value="1" style="text;html=1;align=center;verticalAlign=middle;resizable=0;points=[];autosize=1;strokeColor=none;fillColor=none;" parent="1" vertex="1">
          <mxGeometry x="652.5" y="-832" width="30" height="30" as="geometry" />
        </mxCell>
        <mxCell id="-fiJCeLF8HhbmaKcpxi3-35" value="1" style="text;html=1;align=center;verticalAlign=middle;resizable=0;points=[];autosize=1;strokeColor=none;fillColor=none;" parent="1" vertex="1">
          <mxGeometry x="627.5" y="-892" width="30" height="30" as="geometry" />
        </mxCell>
      </root>
    </mxGraphModel>
  </diagram>
</mxfile>
